<?xml version="1.0" encoding="utf-8"?>
<!-- Generator: Adobe Illustrator 19.1.0, SVG Export Plug-In . SVG Version: 6.00 Build 0)  -->
<svg version="1.1" id="Layer_1" xmlns="http://www.w3.org/2000/svg" xmlns:xlink="http://www.w3.org/1999/xlink" x="0px" y="0px"
	 viewBox="0 0 393.7 97.7" style="enable-background:new 0 0 393.7 97.7;" xml:space="preserve">
<style type="text/css">
	.st0{fill:none;stroke:#000000;stroke-width:2;stroke-miterlimit:10;}
	.st1{font-family:'MyriadPro-Regular';}
	.st2{font-size:23px;}
</style>
<circle class="st0" cx="372" cy="21.3" r="18"/>
<text transform="matrix(1 0 0 1 363.3442 28.9477)" class="st1 st2">M</text>
<circle class="st0" cx="372" cy="75.7" r="18"/>
<text transform="matrix(1 0 0 1 363.3442 83.4191)" class="st1 st2">M</text>
<rect x="247.3" y="3.2" class="st0" width="73.7" height="90.6"/>
<text transform="matrix(1 0 0 1 256.0605 41.3331)"><tspan x="0" y="0" class="st1 st2">Motor</tspan><tspan x="4" y="27.6" class="st1 st2">Drive</tspan></text>
<rect x="89.3" y="3.2" class="st0" width="125" height="90.6"/>
<text transform="matrix(1 0 0 1 98.8075 41.3331)"><tspan x="0" y="0" class="st1 st2">Something</tspan><tspan x="24.7" y="27.6" class="st1 st2">Smart</tspan></text>
<rect x="3.3" y="3.2" class="st0" width="53" height="90.6"/>
<text transform="matrix(0 -1 1 0 35.084 85.4871)" class="st1 st2">Sensors</text>
<g>
	<g>
		<line class="st0" x1="63.5" y1="48.5" x2="82.2" y2="48.5"/>
		<g>
			<path d="M64.3,48.5c2.1-2.1,3.1-6.2,3.2-9.1c-2.9,3.8-6.6,7.2-11.1,9.1c4.5,1.8,8.1,5.4,11.1,9.1C67.2,54.5,66.4,50.8,64.3,48.5z
				"/>
		</g>
		<g>
			<path d="M81.4,48.5c-2.1-2.1-3.1-6.2-3.2-9.1c2.9,3.8,6.6,7.2,11.1,9.1c-4.5,1.8-8.1,5.4-11.1,9.1C78.5,54.5,79.2,50.8,81.4,48.5
				z"/>
		</g>
	</g>
</g>
<g>
	<g>
		<line class="st0" x1="221.5" y1="48.5" x2="240.2" y2="48.5"/>
		<g>
			<path d="M222.3,48.5c2.1-2.1,3.1-6.2,3.2-9.1c-2.9,3.8-6.6,7.2-11.1,9.1c4.5,1.8,8.1,5.4,11.1,9.1
				C225.2,54.5,224.4,50.8,222.3,48.5z"/>
		</g>
		<g>
			<path d="M239.4,48.5c-2.1-2.1-3.1-6.2-3.2-9.1c2.9,3.8,6.6,7.2,11.1,9.1c-4.5,1.8-8.1,5.4-11.1,9.1
				C236.5,54.5,237.2,50.8,239.4,48.5z"/>
		</g>
	</g>
</g>
<g>
	<g>
		<line class="st0" x1="321" y1="75.7" x2="346.9" y2="75.7"/>
		<g>
			<path d="M346.1,75.7c-2.1-2.1-3.1-6.2-3.2-9.1c2.9,3.8,6.6,7.2,11.1,9.1c-4.5,1.8-8.1,5.4-11.1,9.1
				C343.2,81.7,343.9,78,346.1,75.7z"/>
		</g>
	</g>
</g>
<g>
	<g>
		<line class="st0" x1="321" y1="21.3" x2="346.9" y2="21.3"/>
		<g>
			<path d="M346.1,21.3c-2.1-2.1-3.1-6.2-3.2-9.1c2.9,3.8,6.6,7.2,11.1,9.1c-4.5,1.8-8.1,5.4-11.1,9.1
				C343.2,27.3,343.9,23.5,346.1,21.3z"/>
		</g>
	</g>
</g>
</svg>
