<?xml version="1.0" encoding="utf-8"?>
<!-- Generator: Adobe Illustrator 19.1.0, SVG Export Plug-In . SVG Version: 6.00 Build 0)  -->
<svg version="1.1" id="Layer_1" xmlns="http://www.w3.org/2000/svg" xmlns:xlink="http://www.w3.org/1999/xlink" x="0px" y="0px"
	 viewBox="0 0 494.1 454.4" style="enable-background:new 0 0 494.1 454.4;" xml:space="preserve">
<style type="text/css">
	.st0{fill:none;stroke:#BE1E2D;stroke-width:2;stroke-miterlimit:10;}
	.st1{fill:#BE1E2D;}
	.st2{fill:none;stroke:#1C75BC;stroke-width:2;stroke-miterlimit:10;}
	.st3{fill:#1C75BC;}
	.st4{fill:none;stroke:#00A651;stroke-width:2;stroke-miterlimit:10;}
	.st5{fill:#00A651;}
	.st6{fill:none;stroke:#000000;stroke-width:2;stroke-miterlimit:10;}
	.st7{font-family:'MyriadPro-Regular';}
	.st8{font-size:23px;}
	.st9{fill:none;stroke:#2E3192;stroke-width:2;stroke-miterlimit:10;}
	.st10{fill:#2E3192;}
	.st11{font-size:12px;}
</style>
<g>
	<g>
		<g>
			<line class="st0" x1="299.9" y1="324.9" x2="291" y2="324.9"/>
			<g>
				<path class="st1" d="M291.8,324.9c2.1,2.1,3.1,6.2,3.2,9.1c-2.9-3.8-6.6-7.2-11.1-9.1c4.5-1.8,8.1-5.4,11.1-9.1
					C294.7,318.9,293.9,322.6,291.8,324.9z"/>
			</g>
		</g>
	</g>
	<g>
		<g>
			<polyline class="st0" points="148.9,407.5 148.9,389.8 300.4,389.8 300.4,86.8 284.1,86.8 			"/>
			<g>
				<path class="st1" d="M148.9,406.7c-2.1-2.1-6.2-3.1-9.1-3.2c3.8,2.9,7.2,6.6,9.1,11.1c1.8-4.5,5.4-8.1,9.1-11.1
					C155,403.7,151.2,404.5,148.9,406.7z"/>
			</g>
		</g>
	</g>
	<g>
		<g>
			<line class="st0" x1="202.4" y1="389.8" x2="202.4" y2="407.5"/>
			<g>
				<path class="st1" d="M202.4,406.7c2.1-2.1,6.2-3.1,9.1-3.2c-3.8,2.9-7.2,6.6-9.1,11.1c-1.8-4.5-5.4-8.1-9.1-11.1
					C196.4,403.7,200.1,404.5,202.4,406.7z"/>
			</g>
		</g>
	</g>
	<circle class="st1" cx="300.4" cy="196.8" r="2.9"/>
	<circle class="st1" cx="300.4" cy="324.9" r="2.9"/>
	<circle class="st1" cx="202.4" cy="389.8" r="2.9"/>
	<g>
		<g>
			<line class="st0" x1="256.7" y1="389.8" x2="256.7" y2="407.5"/>
			<g>
				<path class="st1" d="M256.7,406.7c2.1-2.1,6.2-3.1,9.1-3.2c-3.8,2.9-7.2,6.6-9.1,11.1c-1.8-4.5-5.4-8.1-9.1-11.1
					C250.7,403.7,254.4,404.5,256.7,406.7z"/>
			</g>
		</g>
	</g>
	<circle class="st1" cx="256.7" cy="389.8" r="2.9"/>
	<g>
		<g>
			<line class="st0" x1="300.4" y1="196.8" x2="291.5" y2="196.8"/>
			<g>
				<path class="st1" d="M292.3,196.8c2.1,2.1,3.1,6.2,3.2,9.1c-2.9-3.8-6.6-7.2-11.1-9.1c4.5-1.8,8.1-5.4,11.1-9.1
					C295.2,190.8,294.5,194.5,292.3,196.8z"/>
			</g>
		</g>
	</g>
</g>
<g>
	<g>
		<line class="st2" x1="279.7" y1="379.9" x2="279.7" y2="414.6"/>
		<g>
			<path class="st3" d="M279.7,380.7c2.1,2.1,6.2,3.1,9.1,3.2c-3.8-2.9-7.2-6.6-9.1-11.1c-1.8,4.5-5.4,8.1-9.1,11.1
				C273.6,383.6,277.4,382.8,279.7,380.7z"/>
		</g>
	</g>
</g>
<g>
	<g>
		<line class="st2" x1="227.2" y1="379.9" x2="227.2" y2="414.6"/>
		<g>
			<path class="st3" d="M227.2,380.7c2.1,2.1,6.2,3.1,9.1,3.2c-3.8-2.9-7.2-6.6-9.1-11.1c-1.8,4.5-5.4,8.1-9.1,11.1
				C221.1,383.6,224.9,382.8,227.2,380.7z"/>
		</g>
	</g>
</g>
<g>
	<g>
		<line class="st2" x1="172.9" y1="379.9" x2="172.9" y2="414.6"/>
		<g>
			<path class="st3" d="M172.9,380.7c2.1,2.1,6.2,3.1,9.1,3.2c-3.8-2.9-7.2-6.6-9.1-11.1c-1.8,4.5-5.4,8.1-9.1,11.1
				C166.9,383.6,170.6,382.8,172.9,380.7z"/>
		</g>
	</g>
</g>
<g>
	<g>
		<g>
			<polyline class="st4" points="318.5,126 369.5,126 369.5,144.4 			"/>
			<g>
				<path class="st5" d="M369.5,143.6c2.1-2.1,6.2-3.1,9.1-3.2c-3.8,2.9-7.2,6.6-9.1,11.1c-1.8-4.5-5.4-8.1-9.1-11.1
					C363.5,140.7,367.2,141.4,369.5,143.6z"/>
			</g>
		</g>
	</g>
	<g>
		<g>
			<polyline class="st4" points="283.8,72.7 318.5,72.7 318.5,256.8 369.5,256.8 369.5,275.2 			"/>
			<g>
				<path class="st5" d="M369.5,274.4c2.1-2.1,6.2-3.1,9.1-3.2c-3.8,2.9-7.2,6.6-9.1,11.1c-1.8-4.5-5.4-8.1-9.1-11.1
					C363.5,271.5,367.2,272.2,369.5,274.4z"/>
			</g>
		</g>
	</g>
</g>
<g>
	<g>
		<line class="st2" x1="212.8" y1="144.4" x2="212.8" y2="98.6"/>
		<g>
			<path class="st3" d="M212.8,143.6c-2.1-2.1-6.2-3.1-9.1-3.2c3.8,2.9,7.2,6.6,9.1,11.1c1.8-4.5,5.4-8.1,9.1-11.1
				C218.9,140.7,215.1,141.4,212.8,143.6z"/>
		</g>
	</g>
</g>
<rect x="158.8" y="151.5" class="st6" width="125" height="90.6"/>
<text transform="matrix(1 0 0 1 197.471 189.6664)"><tspan x="0" y="0" class="st7 st8">Main</tspan><tspan x="-24.3" y="27.6" class="st7 st8">Controller</tspan></text>
<g>
	<g>
		<line class="st6" x1="133" y1="196.8" x2="151.7" y2="196.8"/>
		<g>
			<path d="M133.8,196.8c2.1-2.1,3.1-6.2,3.2-9.1c-2.9,3.8-6.6,7.2-11.1,9.1c4.5,1.8,8.1,5.4,11.1,9.1
				C136.7,202.8,135.9,199.1,133.8,196.8z"/>
		</g>
		<g>
			<path d="M150.9,196.8c-2.1-2.1-3.1-6.2-3.2-9.1c2.9,3.8,6.6,7.2,11.1,9.1c-4.5,1.8-8.1,5.4-11.1,9.1
				C148,202.8,148.7,199.1,150.9,196.8z"/>
		</g>
	</g>
</g>
<g>
	<g>
		<g>
			<line class="st2" x1="291" y1="224.1" x2="348.8" y2="224.1"/>
			<g>
				<path class="st3" d="M291.8,224.1c2.1-2.1,3.1-6.2,3.2-9.1c-2.9,3.8-6.6,7.2-11.1,9.1c4.5,1.8,8.1,5.4,11.1,9.1
					C294.7,230.1,293.9,226.4,291.8,224.1z"/>
			</g>
		</g>
	</g>
	<circle class="st6" cx="473.5" cy="169.6" r="18"/>
	<text transform="matrix(1 0 0 1 464.8442 177.2807)" class="st7 st8">M</text>
	<circle class="st6" cx="473.5" cy="224.1" r="18"/>
	<text transform="matrix(1 0 0 1 464.8442 231.7521)" class="st7 st8">M</text>
	<rect x="348.8" y="151.5" class="st6" width="73.7" height="90.6"/>
	<text transform="matrix(1 0 0 1 357.5605 189.6661)"><tspan x="0" y="0" class="st7 st8">Motor</tspan><tspan x="4" y="27.6" class="st7 st8">Drive</tspan></text>
	<g>
		<g>
			<line class="st6" x1="283.8" y1="169.6" x2="341.7" y2="169.6"/>
			<g>
				<path d="M340.9,169.6c-2.1-2.1-3.1-6.2-3.2-9.1c2.9,3.8,6.6,7.2,11.1,9.1c-4.5,1.8-8.1,5.4-11.1,9.1
					C338,175.6,338.7,171.9,340.9,169.6z"/>
			</g>
		</g>
	</g>
	<g>
		<g>
			<line class="st6" x1="422.5" y1="224.1" x2="448.4" y2="224.1"/>
			<g>
				<path d="M447.6,224.1c-2.1-2.1-3.1-6.2-3.2-9.1c2.9,3.8,6.6,7.2,11.1,9.1c-4.5,1.8-8.1,5.4-11.1,9.1
					C444.7,230.1,445.4,226.4,447.6,224.1z"/>
			</g>
		</g>
	</g>
	<g>
		<g>
			<line class="st6" x1="422.5" y1="169.6" x2="448.4" y2="169.6"/>
			<g>
				<path d="M447.6,169.6c-2.1-2.1-3.1-6.2-3.2-9.1c2.9,3.8,6.6,7.2,11.1,9.1c-4.5,1.8-8.1,5.4-11.1,9.1
					C444.7,175.6,445.4,171.9,447.6,169.6z"/>
			</g>
		</g>
	</g>
</g>
<g>
	<g>
		<g>
			<line class="st2" x1="291" y1="354.7" x2="348.8" y2="354.7"/>
			<g>
				<path class="st3" d="M291.8,354.7c2.1-2.1,3.1-6.2,3.2-9.1c-2.9,3.8-6.6,7.2-11.1,9.1c4.5,1.8,8.1,5.4,11.1,9.1
					C294.7,360.7,293.9,357,291.8,354.7z"/>
			</g>
		</g>
	</g>
	<circle class="st6" cx="473.5" cy="300.2" r="18"/>
	<text transform="matrix(1 0 0 1 464.8442 307.9131)" class="st7 st8">M</text>
	<circle class="st6" cx="473.5" cy="354.7" r="18"/>
	<text transform="matrix(1 0 0 1 464.8442 362.3846)" class="st7 st8">M</text>
	<rect x="348.8" y="282.2" class="st6" width="73.7" height="90.6"/>
	<text transform="matrix(1 0 0 1 357.5605 320.2986)"><tspan x="0" y="0" class="st7 st8">Motor</tspan><tspan x="4" y="27.6" class="st7 st8">Drive</tspan></text>
	<g>
		<g>
			<line class="st6" x1="283.8" y1="300.2" x2="341.7" y2="300.2"/>
			<g>
				<path d="M340.9,300.2c-2.1-2.1-3.1-6.2-3.2-9.1c2.9,3.8,6.6,7.2,11.1,9.1c-4.5,1.8-8.1,5.4-11.1,9.1
					C338,306.2,338.7,302.5,340.9,300.2z"/>
			</g>
		</g>
	</g>
	<g>
		<g>
			<line class="st6" x1="422.5" y1="354.7" x2="448.4" y2="354.7"/>
			<g>
				<path d="M447.6,354.7c-2.1-2.1-3.1-6.2-3.2-9.1c2.9,3.8,6.6,7.2,11.1,9.1c-4.5,1.8-8.1,5.4-11.1,9.1
					C444.7,360.7,445.4,357,447.6,354.7z"/>
			</g>
		</g>
	</g>
	<g>
		<g>
			<line class="st6" x1="422.5" y1="300.2" x2="448.4" y2="300.2"/>
			<g>
				<path d="M447.6,300.2c-2.1-2.1-3.1-6.2-3.2-9.1c2.9,3.8,6.6,7.2,11.1,9.1c-4.5,1.8-8.1,5.4-11.1,9.1
					C444.7,306.2,445.4,302.5,447.6,300.2z"/>
			</g>
		</g>
	</g>
</g>
<rect x="158.8" y="282.2" class="st6" width="125" height="90.6"/>
<text transform="matrix(1 0 0 1 204.8197 320.2986)"><tspan x="0" y="0" class="st7 st8">Co-</tspan><tspan x="-29.8" y="27.6" class="st7 st8">Processor</tspan></text>
<g>
	<g>
		<line class="st6" x1="202" y1="249.2" x2="202" y2="275.2"/>
		<g>
			<path d="M202,250c2.1,2.1,6.2,3.1,9.1,3.2c-3.8-2.9-7.2-6.6-9.1-11.1c-1.8,4.5-5.4,8.1-9.1,11.1C196,253,199.7,252.2,202,250z"/>
		</g>
		<g>
			<path d="M202,274.4c2.1-2.1,6.2-3.1,9.1-3.2c-3.8,2.9-7.2,6.6-9.1,11.1c-1.8-4.5-5.4-8.1-9.1-11.1
				C196,271.5,199.7,272.2,202,274.4z"/>
		</g>
	</g>
</g>
<rect x="158.8" y="8" class="st6" width="125" height="90.6"/>
<text transform="matrix(1 0 0 1 190.9164 46.1241)"><tspan x="0" y="0" class="st7 st8">Power</tspan><tspan x="-26.8" y="27.6" class="st7 st8">Distribution</tspan></text>
<g>
	<g>
		<line class="st6" x1="188.4" y1="151.5" x2="188.4" y2="105.7"/>
		<g>
			<path d="M188.4,106.5c-2.1,2.1-6.2,3.1-9.1,3.2c3.8-2.9,7.2-6.6,9.1-11.1c1.8,4.5,5.4,8.1,9.1,11.1
				C194.4,109.4,190.7,108.7,188.4,106.5z"/>
		</g>
	</g>
</g>
<g>
	<g>
		<line class="st9" x1="93.8" y1="24" x2="151.7" y2="24"/>
		<g>
			<path class="st10" d="M150.9,24c-2.1-2.1-3.1-6.2-3.2-9.1c2.9,3.8,6.6,7.2,11.1,9.1c-4.5,1.8-8.1,5.4-11.1,9.1
				C148,30,148.7,26.3,150.9,24z"/>
		</g>
	</g>
</g>
<circle class="st5" cx="318.5" cy="126" r="2.9"/>
<rect x="37.6" y="151.5" class="st6" width="88.8" height="90.6"/>
<text transform="matrix(1 0 0 1 42.4637 189.6661)"><tspan x="0" y="0" class="st7 st8">Position</tspan><tspan x="1.9" y="27.6" class="st7 st8">Sensors</tspan></text>
<text transform="matrix(1 0 0 1 66.6729 17.4574)" class="st10 st7 st8">Battery</text>
<rect x="136.2" y="414.6" class="st6" width="45.3" height="37.9"/>
<rect x="189.7" y="414.6" class="st6" width="45.3" height="37.9"/>
<rect x="243.9" y="414.6" class="st6" width="45.3" height="37.9"/>
<text transform="matrix(1 0 0 1 141.9076 431.3333)"><tspan x="0" y="0" class="st7 st11">Sensor</tspan><tspan x="13.8" y="14.4" class="st7 st11">1</tspan></text>
<text transform="matrix(1 0 0 1 196.0744 431.3333)"><tspan x="0" y="0" class="st7 st11">Sensor</tspan><tspan x="13.8" y="14.4" class="st7 st11">2</tspan></text>
<text transform="matrix(1 0 0 1 249.6575 431.3333)"><tspan x="0" y="0" class="st7 st11">Sensor</tspan><tspan x="13.8" y="14.4" class="st7 st11">3</tspan></text>
<g>
	<g>
		<g>
			<g>
				<line class="st6" x1="83.9" y1="296.5" x2="102.6" y2="296.5"/>
				<g>
					<path d="M101.8,296.5c-2.1-2.1-3.1-6.2-3.2-9.1c2.9,3.8,6.6,7.2,11.1,9.1c-4.5,1.8-8.1,5.4-11.1,9.1
						C98.9,302.5,99.6,298.8,101.8,296.5z"/>
				</g>
			</g>
		</g>
		<text transform="matrix(1 0 0 1 25.53 294.0433)" class="st7 st11">Digital Signals</text>
	</g>
	<g>
		<g>
			<g>
				<line class="st2" x1="25.4" y1="318.3" x2="44.2" y2="318.3"/>
				<g>
					<path class="st3" d="M26.2,318.3c2.1-2.1,3.1-6.2,3.2-9.1c-2.9,3.8-6.6,7.2-11.1,9.1c4.5,1.8,8.1,5.4,11.1,9.1
						C29.2,324.3,28.4,320.6,26.2,318.3z"/>
				</g>
			</g>
		</g>
		<text transform="matrix(1 0 0 1 30.5379 315.7936)" class="st3 st7 st11">Analogue Signals</text>
	</g>
	<g>
		<g>
			<g>
				<line class="st4" x1="109.2" y1="340.3" x2="127.5" y2="340.3"/>
				<g>
					<path class="st5" d="M126.7,340.3c-2.1-2.1-3.1-6.2-3.2-9.1c2.9,3.8,6.6,7.2,11.1,9.1c-4.5,1.8-8.1,5.4-11.1,9.1
						C123.8,346.3,124.6,342.6,126.7,340.3z"/>
				</g>
			</g>
		</g>
		<text transform="matrix(1 0 0 1 0.4216 337.543)" class="st5 st7 st11">Switched Battery Power</text>
	</g>
	<g>
		<g>
			<g>
				<line class="st0" x1="45.9" y1="361.6" x2="27.6" y2="361.6"/>
				<g>
					<path class="st1" d="M28.4,361.6c2.1,2.1,3.1,6.2,3.2,9.1c-2.9-3.8-6.6-7.2-11.1-9.1c4.5-1.8,8.1-5.4,11.1-9.1
						C31.3,355.6,30.5,359.3,28.4,361.6z"/>
				</g>
			</g>
		</g>
		<text transform="matrix(1 0 0 1 32.3415 359.2933)" class="st1 st7 st11">Analogue Power</text>
	</g>
</g>
</svg>
