<?xml version="1.0" encoding="utf-8"?>
<!-- Generator: Adobe Illustrator 19.1.0, SVG Export Plug-In . SVG Version: 6.00 Build 0)  -->
<svg version="1.1" id="Layer_1" xmlns="http://www.w3.org/2000/svg" xmlns:xlink="http://www.w3.org/1999/xlink" x="0px" y="0px"
	 viewBox="0 0 504 245.5" style="enable-background:new 0 0 504 245.5;" xml:space="preserve">
<style type="text/css">
	.st0{fill:none;stroke:#00A651;stroke-width:2;stroke-miterlimit:10;}
	.st1{fill:#00A651;}
	.st2{fill:none;stroke:#F26522;stroke-width:2;stroke-miterlimit:10;}
	.st3{fill:#F26522;}
	.st4{fill:none;stroke:#7F3F98;stroke-width:2;stroke-miterlimit:10;}
	.st5{fill:#7F3F98;}
	.st6{fill:none;stroke:#BE1E2D;stroke-width:2;stroke-miterlimit:10;}
	.st7{fill:#BE1E2D;}
	.st8{fill:none;stroke:#000000;stroke-width:2;stroke-miterlimit:10;}
	.st9{font-family:'MyriadPro-Regular';}
	.st10{font-size:23px;}
	.st11{fill:none;stroke:#1C75BC;stroke-width:2;stroke-miterlimit:10;}
	.st12{fill:#1C75BC;}
	.st13{font-size:12px;}
</style>
<g>
	<g>
		<line class="st0" x1="356" y1="3.2" x2="356" y2="21.6"/>
		<g>
			<path class="st1" d="M356,20.8c2.1-2.1,6.2-3.1,9.1-3.2c-3.8,2.9-7.2,6.6-9.1,11.1c-1.8-4.5-5.4-8.1-9.1-11.1
				C349.9,17.9,353.7,18.6,356,20.8z"/>
		</g>
	</g>
</g>
<g>
	<g>
		<line class="st2" x1="336.5" y1="3.2" x2="336.5" y2="21.6"/>
		<g>
			<path class="st3" d="M336.5,20.8c2.1-2.1,6.2-3.1,9.1-3.2c-3.8,2.9-7.2,6.6-9.1,11.1c-1.8-4.5-5.4-8.1-9.1-11.1
				C330.4,17.9,334.2,18.6,336.5,20.8z"/>
		</g>
	</g>
</g>
<g>
	<g>
		<line class="st4" x1="34.2" y1="3.2" x2="34.2" y2="21.6"/>
		<g>
			<path class="st5" d="M34.2,20.8c2.1-2.1,6.2-3.1,9.1-3.2c-3.8,2.9-7.2,6.6-9.1,11.1c-1.8-4.5-5.4-8.1-9.1-11.1
				C28.2,17.9,31.9,18.6,34.2,20.8z"/>
		</g>
	</g>
</g>
<g>
	<g>
		<line class="st6" x1="73.2" y1="3.2" x2="73.2" y2="21.6"/>
		<g>
			<path class="st7" d="M73.2,20.8c2.1-2.1,6.2-3.1,9.1-3.2c-3.8,2.9-7.2,6.6-9.1,11.1c-1.8-4.5-5.4-8.1-9.1-11.1
				C67.2,17.9,70.9,18.6,73.2,20.8z"/>
		</g>
	</g>
</g>
<g>
	<g>
		<line class="st2" x1="53.5" y1="3.2" x2="53.5" y2="21.6"/>
		<g>
			<path class="st3" d="M53.5,20.8c2.1-2.1,6.2-3.1,9.1-3.2c-3.8,2.9-7.2,6.6-9.1,11.1c-1.8-4.5-5.4-8.1-9.1-11.1
				C47.4,17.9,51.2,18.6,53.5,20.8z"/>
		</g>
	</g>
</g>
<rect x="20" y="28.7" class="st8" width="125" height="125.3"/>
<text transform="matrix(1 0 0 1 34.3388 95.8331)" class="st9 st10">Controller</text>
<g>
	<g>
		<line class="st11" x1="152.2" y1="141.2" x2="330" y2="141.2"/>
		<g>
			<path class="st12" d="M153,141.2c2.1-2.1,3.1-6.2,3.2-9.1c-2.9,3.8-6.6,7.2-11.1,9.1c4.5,1.8,8.1,5.4,11.1,9.1
				C155.9,147.2,155.1,143.5,153,141.2z"/>
		</g>
	</g>
</g>
<circle class="st8" cx="473.7" cy="46.8" r="18"/>
<text transform="matrix(1 0 0 1 465.0454 54.4474)" class="st9 st10">M</text>
<rect x="330" y="28.7" class="st8" width="92" height="125.3"/>
<text transform="matrix(1 0 0 1 346.7618 57.8328)"><tspan x="0" y="0" class="st9 st10">Motor</tspan><tspan x="4" y="27.6" class="st9 st10">Drive</tspan><tspan x="-2.2" y="55.2" class="st9 st10">3x half</tspan><tspan x="-12.9" y="82.8" class="st9 st10">H-Bridge</tspan></text>
<g>
	<g>
		<line class="st8" x1="145" y1="57.8" x2="322.9" y2="57.8"/>
		<g>
			<path d="M322.1,57.8c-2.1-2.1-3.1-6.2-3.2-9.1c2.9,3.8,6.6,7.2,11.1,9.1c-4.5,1.8-8.1,5.4-11.1,9.1
				C319.2,63.8,319.9,60,322.1,57.8z"/>
		</g>
	</g>
</g>
<g>
	<g>
		<line class="st8" x1="422.7" y1="46.8" x2="448.6" y2="46.8"/>
		<g>
			<path d="M447.8,46.8c-2.1-2.1-3.1-6.2-3.2-9.1c2.9,3.8,6.6,7.2,11.1,9.1c-4.5,1.8-8.1,5.4-11.1,9.1
				C444.9,52.8,445.6,49,447.8,46.8z"/>
		</g>
	</g>
</g>
<g>
	<g>
		<g>
			<g>
				<line class="st8" x1="89.9" y1="189" x2="108.7" y2="189"/>
				<g>
					<path d="M107.9,189c-2.1-2.1-3.1-6.2-3.2-9.1c2.9,3.8,6.6,7.2,11.1,9.1c-4.5,1.8-8.1,5.4-11.1,9.1
						C104.9,195,105.7,191.3,107.9,189z"/>
				</g>
			</g>
		</g>
		<text transform="matrix(1 0 0 1 31.5772 186.5291)" class="st9 st13">Digital Signals</text>
	</g>
	<g>
		<g>
			<g>
				<line class="st11" x1="31.5" y1="211.6" x2="50.2" y2="211.6"/>
				<g>
					<path class="st12" d="M32.3,211.6c2.1-2.1,3.1-6.2,3.2-9.1c-2.9,3.8-6.6,7.2-11.1,9.1c4.5,1.8,8.1,5.4,11.1,9.1
						C35.2,217.6,34.5,213.9,32.3,211.6z"/>
				</g>
			</g>
		</g>
		<text transform="matrix(1 0 0 1 36.5849 209.1247)" class="st12 st9 st13">Analogue Signals</text>
	</g>
	<g>
		<g>
			<g>
				<line class="st0" x1="115.2" y1="234.5" x2="133.6" y2="234.5"/>
				<g>
					<path class="st1" d="M132.8,234.5c-2.1-2.1-3.1-6.2-3.2-9.1c2.9,3.8,6.6,7.2,11.1,9.1c-4.5,1.8-8.1,5.4-11.1,9.1
						C129.9,240.5,130.6,236.8,132.8,234.5z"/>
				</g>
			</g>
		</g>
		<text transform="matrix(1 0 0 1 6.4688 231.7194)" class="st1 st9 st13">Switched Battery Power</text>
	</g>
</g>
<g>
	<g>
		<g>
			<g>
				<line class="st6" x1="205.9" y1="189.3" x2="187.5" y2="189.3"/>
				<g>
					<path class="st7" d="M188.3,189.3c2.1,2.1,3.1,6.2,3.2,9.1c-2.9-3.8-6.6-7.2-11.1-9.1c4.5-1.8,8.1-5.4,11.1-9.1
						C191.2,183.3,190.5,187,188.3,189.3z"/>
				</g>
			</g>
		</g>
		<text transform="matrix(1 0 0 1 192.2701 186.967)" class="st7 st9 st13">Analogue Power</text>
	</g>
	<g>
		<g>
			<g>
				<line class="st4" x1="244.6" y1="212.1" x2="263" y2="212.1"/>
				<g>
					<path class="st5" d="M262.2,212.1c-2.1-2.1-3.1-6.2-3.2-9.1c2.9,3.8,6.6,7.2,11.1,9.1c-4.5,1.8-8.1,5.4-11.1,9.1
						C259.3,218.1,260,214.4,262.2,212.1z"/>
				</g>
			</g>
		</g>
		<text transform="matrix(1 0 0 1 184.8144 209.5623)" class="st5 st9 st13">Backup Power</text>
	</g>
	<g>
		<g>
			<g>
				<line class="st2" x1="212.3" y1="234.5" x2="193.9" y2="234.5"/>
				<g>
					<path class="st3" d="M194.7,234.5c2.1,2.1,3.1,6.2,3.2,9.1c-2.9-3.8-6.6-7.2-11.1-9.1c4.5-1.8,8.1-5.4,11.1-9.1
						C197.7,228.5,196.9,232.2,194.7,234.5z"/>
				</g>
			</g>
		</g>
		<text transform="matrix(1 0 0 1 201.4779 232.1578)" class="st3 st9 st13">Digital Power</text>
	</g>
</g>
<line class="st8" x1="167.7" y1="66" x2="184.2" y2="49.5"/>
<line class="st11" x1="167.7" y1="149.5" x2="184.2" y2="133"/>
<g>
	<g>
		<line class="st8" x1="145" y1="87.1" x2="322.9" y2="87.1"/>
		<g>
			<path d="M322.1,87.1c-2.1-2.1-3.1-6.2-3.2-9.1c2.9,3.8,6.6,7.2,11.1,9.1c-4.5,1.8-8.1,5.4-11.1,9.1
				C319.2,93.1,319.9,89.4,322.1,87.1z"/>
		</g>
	</g>
</g>
<line class="st8" x1="167.7" y1="95.3" x2="184.2" y2="78.8"/>
<text transform="matrix(1 0 0 1 154.9685 74.9998)" class="st9 st10">3</text>
<text transform="matrix(1 0 0 1 154.9685 104.4581)" class="st9 st10">3</text>
<text transform="matrix(1 0 0 1 154.9687 158.5414)" class="st12 st9 st10">3</text>
<text transform="matrix(1 0 0 1 184.206 56.0834)" class="st9 st10">PWM Control</text>
<text transform="matrix(1 0 0 1 184.2061 85.4997)" class="st9 st10">Aux/Polarity</text>
<text transform="matrix(1 0 0 1 184.206 139.3334)" class="st12 st9 st10">Phase Current</text>
<g>
	<line class="st8" x1="320.4" y1="197.5" x2="359.6" y2="197.5"/>
	<line class="st8" x1="337.2" y1="205.8" x2="353.7" y2="189.3"/>
	<text transform="matrix(1 0 0 1 324.4334 214.9254)" class="st9 st10">3</text>
	<text transform="matrix(1 0 0 1 353.6712 211.1024)" class="st9 st13">This Signal Type has 3 wires</text>
</g>
</svg>
