<?xml version="1.0" encoding="utf-8"?>
<!-- Generator: Adobe Illustrator 19.1.0, SVG Export Plug-In . SVG Version: 6.00 Build 0)  -->
<svg version="1.1" id="Layer_1" xmlns="http://www.w3.org/2000/svg" xmlns:xlink="http://www.w3.org/1999/xlink" x="0px" y="0px"
	 viewBox="0 0 535 330" style="enable-background:new 0 0 535 330;" xml:space="preserve">
<style type="text/css">
	.st0{fill:none;stroke:#F26522;stroke-width:2;stroke-miterlimit:10;}
	.st1{fill:#F26522;}
	.st2{fill:none;stroke:#9B8579;stroke-width:2;stroke-miterlimit:10;}
	.st3{fill:none;stroke:#9B8579;stroke-width:2;stroke-miterlimit:10;stroke-dasharray:7.5657,5.6742;}
	.st4{fill:none;stroke:#7F3F98;stroke-width:2;stroke-miterlimit:10;}
	.st5{fill:#7F3F98;}
	.st6{fill:none;stroke:#BE1E2D;stroke-width:2;stroke-miterlimit:10;}
	.st7{fill:#BE1E2D;}
	.st8{fill:none;stroke:#000000;stroke-width:2;stroke-miterlimit:10;}
	.st9{font-family:'MyriadPro-Regular';}
	.st10{font-size:23px;}
	.st11{font-size:12px;}
	.st12{fill:none;stroke:#1C75BC;stroke-width:2;stroke-miterlimit:10;}
	.st13{fill:#1C75BC;}
	.st14{fill:#F15A29;}
	.st15{font-size:16px;}
</style>
<g>
	<g>
		<polyline class="st0" points="436,23.8 323.2,23.8 323.2,33.1 		"/>
		<g>
			<path class="st1" d="M323.2,32.3c2.1-2.1,6.2-3.1,9.1-3.2c-3.8,2.9-7.2,6.6-9.1,11.1c-1.8-4.5-5.4-8.1-9.1-11.1
				C317.2,29.4,320.9,30.1,323.2,32.3z"/>
		</g>
	</g>
</g>
<g>
	<g>
		<polyline class="st0" points="39.5,23.8 257.3,23.8 257.3,33.1 		"/>
		<g>
			<path class="st1" d="M257.3,32.3c2.1-2.1,6.2-3.1,9.1-3.2c-3.8,2.9-7.2,6.6-9.1,11.1c-1.8-4.5-5.4-8.1-9.1-11.1
				C251.3,29.4,255,30.1,257.3,32.3z"/>
		</g>
	</g>
</g>
<g>
	<g>
		<line class="st2" x1="290.8" y1="21.2" x2="290.8" y2="25.2"/>
		<line class="st3" x1="290.8" y1="30.8" x2="290.8" y2="147.2"/>
		<line class="st2" x1="290.8" y1="150" x2="290.8" y2="154"/>
	</g>
</g>
<g>
	<g>
		<line class="st4" x1="20.2" y1="14.7" x2="20.2" y2="33.1"/>
		<g>
			<path class="st5" d="M20.2,32.3c2.1-2.1,6.2-3.1,9.1-3.2c-3.8,2.9-7.2,6.6-9.1,11.1c-1.8-4.5-5.4-8.1-9.1-11.1
				C14.2,29.4,17.9,30.1,20.2,32.3z"/>
		</g>
	</g>
</g>
<g>
	<g>
		<line class="st6" x1="59.2" y1="14.7" x2="59.2" y2="33.1"/>
		<g>
			<path class="st7" d="M59.2,32.3c2.1-2.1,6.2-3.1,9.1-3.2c-3.8,2.9-7.2,6.6-9.1,11.1c-1.8-4.5-5.4-8.1-9.1-11.1
				C53.2,29.4,56.9,30.1,59.2,32.3z"/>
		</g>
	</g>
</g>
<g>
	<g>
		<line class="st0" x1="39.5" y1="14.7" x2="39.5" y2="33.1"/>
		<g>
			<path class="st1" d="M39.5,32.3c2.1-2.1,6.2-3.1,9.1-3.2c-3.8,2.9-7.2,6.6-9.1,11.1c-1.8-4.5-5.4-8.1-9.1-11.1
				C33.4,29.4,37.2,30.1,39.5,32.3z"/>
		</g>
	</g>
</g>
<rect x="6" y="40.2" class="st8" width="125" height="95.8"/>
<text transform="matrix(1 0 0 1 44.6723 81.3331)"><tspan x="0" y="0" class="st9 st10">Main</tspan><tspan x="-24.3" y="27.6" class="st9 st10">Controller</tspan></text>
<g>
	<g>
		<g>
			<g>
				<line class="st8" x1="55.1" y1="201.5" x2="36.4" y2="201.5"/>
				<g>
					<path d="M37.2,201.5c2.1,2.1,3.1,6.2,3.2,9.1c-2.9-3.8-6.6-7.2-11.1-9.1c4.5-1.8,8.1-5.4,11.1-9.1
						C40.1,195.5,39.3,199.2,37.2,201.5z"/>
				</g>
			</g>
		</g>
		<text transform="matrix(1 0 0 1 44.9046 199.0291)" class="st9 st11">Digital Signals</text>
	</g>
	<g>
		<g>
			<g>
				<line class="st12" x1="116.1" y1="224.9" x2="97.4" y2="224.9"/>
				<g>
					<path class="st13" d="M115.3,224.9c-2.1,2.1-3.1,6.2-3.2,9.1c2.9-3.8,6.6-7.2,11.1-9.1c-4.5-1.8-8.1-5.4-11.1-9.1
						C112.4,218.9,113.2,222.6,115.3,224.9z"/>
				</g>
			</g>
		</g>
		<text transform="matrix(1 0 0 1 21.6483 222.4364)" class="st13 st9 st11">Analogue Signals</text>
	</g>
	<g>
		<g>
			<g>
				<line class="st6" x1="50.8" y1="248.2" x2="32.4" y2="248.2"/>
				<g>
					<path class="st7" d="M33.2,248.2c2.1,2.1,3.1,6.2,3.2,9.1c-2.9-3.8-6.6-7.2-11.1-9.1c4.5-1.8,8.1-5.4,11.1-9.1
						C36.1,242.2,35.4,245.9,33.2,248.2z"/>
				</g>
			</g>
		</g>
		<text transform="matrix(1 0 0 1 37.1596 245.8435)" class="st7 st9 st11">Analogue Power</text>
	</g>
	<g>
		<g>
			<g>
				<line class="st4" x1="89.5" y1="271.8" x2="107.9" y2="271.8"/>
				<g>
					<path class="st5" d="M107.1,271.8c-2.1-2.1-3.1-6.2-3.2-9.1c2.9,3.8,6.6,7.2,11.1,9.1c-4.5,1.8-8.1,5.4-11.1,9.1
						C104.2,277.8,104.9,274,107.1,271.8z"/>
				</g>
			</g>
		</g>
		<text transform="matrix(1 0 0 1 29.7041 269.2506)" class="st5 st9 st11">Backup Power</text>
	</g>
	<g>
		<g>
			<g>
				<line class="st0" x1="57.2" y1="295" x2="38.8" y2="295"/>
				<g>
					<path class="st1" d="M39.6,295c2.1,2.1,3.1,6.2,3.2,9.1c-2.9-3.8-6.6-7.2-11.1-9.1c4.5-1.8,8.1-5.4,11.1-9.1
						C42.6,289,41.8,292.7,39.6,295z"/>
				</g>
			</g>
		</g>
		<text transform="matrix(1 0 0 1 46.3676 292.6578)" class="st1 st9 st11">Digital Power</text>
	</g>
</g>
<g>
	<line class="st8" x1="276.4" y1="300" x2="315.6" y2="300"/>
	<line class="st8" x1="293.2" y1="308.3" x2="309.7" y2="291.8"/>
	<text transform="matrix(1 0 0 1 280.4334 317.4254)" class="st9 st10">3</text>
	<text transform="matrix(1 0 0 1 309.6712 313.6024)" class="st9 st11">This Signal Type has 3 wires</text>
</g>
<rect x="403.2" y="40.2" class="st8" width="125" height="95.8"/>
<text transform="matrix(1 0 0 1 449.1886 82.3331)"><tspan x="0" y="0" class="st9 st10">Co-</tspan><tspan x="-29.8" y="27.6" class="st9 st10">Processor</tspan></text>
<g>
	<g>
		<line class="st4" x1="416.7" y1="14.7" x2="416.7" y2="33.1"/>
		<g>
			<path class="st5" d="M416.7,32.3c2.1-2.1,6.2-3.1,9.1-3.2c-3.8,2.9-7.2,6.6-9.1,11.1c-1.8-4.5-5.4-8.1-9.1-11.1
				C410.7,29.4,414.4,30.1,416.7,32.3z"/>
		</g>
	</g>
</g>
<g>
	<g>
		<line class="st6" x1="455.7" y1="14.7" x2="455.7" y2="33.1"/>
		<g>
			<path class="st7" d="M455.7,32.3c2.1-2.1,6.2-3.1,9.1-3.2c-3.8,2.9-7.2,6.6-9.1,11.1c-1.8-4.5-5.4-8.1-9.1-11.1
				C449.7,29.4,453.4,30.1,455.7,32.3z"/>
		</g>
	</g>
</g>
<g>
	<g>
		<line class="st0" x1="436" y1="14.7" x2="436" y2="33.1"/>
		<g>
			<path class="st1" d="M436,32.3c2.1-2.1,6.2-3.1,9.1-3.2c-3.8,2.9-7.2,6.6-9.1,11.1c-1.8-4.5-5.4-8.1-9.1-11.1
				C429.9,29.4,433.7,30.1,436,32.3z"/>
		</g>
	</g>
</g>
<rect x="323.2" y="178.2" class="st8" width="125" height="95.8"/>
<text transform="matrix(1 0 0 1 364.1861 220.3331)"><tspan x="0" y="0" class="st9 st10">User</tspan><tspan x="-18.6" y="27.6" class="st9 st10">Memory</tspan></text>
<g>
	<g>
		<line class="st4" x1="336.7" y1="152.7" x2="336.7" y2="171.1"/>
		<g>
			<path class="st5" d="M336.7,170.3c2.1-2.1,6.2-3.1,9.1-3.2c-3.8,2.9-7.2,6.6-9.1,11.1c-1.8-4.5-5.4-8.1-9.1-11.1
				C330.7,167.4,334.4,168.1,336.7,170.3z"/>
		</g>
	</g>
</g>
<g>
	<g>
		<line class="st0" x1="356" y1="152.7" x2="356" y2="171.1"/>
		<g>
			<path class="st1" d="M356,170.3c2.1-2.1,6.2-3.1,9.1-3.2c-3.8,2.9-7.2,6.6-9.1,11.1c-1.8-4.5-5.4-8.1-9.1-11.1
				C349.9,167.4,353.7,168.1,356,170.3z"/>
		</g>
	</g>
</g>
<g>
	<g>
		<line class="st8" x1="138.2" y1="60.2" x2="237.7" y2="60.2"/>
		<g>
			<path d="M139,60.2c2.1-2.1,3.1-6.2,3.2-9.1c-2.9,3.8-6.6,7.2-11.1,9.1c4.5,1.8,8.1,5.4,11.1,9.1C141.9,66.2,141.1,62.5,139,60.2z
				"/>
		</g>
		<g>
			<path d="M236.9,60.2c-2.1-2.1-3.1-6.2-3.2-9.1c2.9,3.8,6.6,7.2,11.1,9.1c-4.5,1.8-8.1,5.4-11.1,9.1
				C234,66.2,234.7,62.5,236.9,60.2z"/>
		</g>
	</g>
</g>
<g>
	<g>
		<polyline class="st8" points="226.3,60.2 226.3,192.5 316.1,192.5 		"/>
		<g>
			<path d="M315.3,192.5c-2.1-2.1-3.1-6.2-3.2-9.1c2.9,3.8,6.6,7.2,11.1,9.1c-4.5,1.8-8.1,5.4-11.1,9.1
				C312.4,198.5,313.1,194.8,315.3,192.5z"/>
		</g>
	</g>
</g>
<g>
	<g>
		<line class="st8" x1="131" y1="83" x2="237.7" y2="83"/>
		<g>
			<path d="M236.9,83c-2.1-2.1-3.1-6.2-3.2-9.1c2.9,3.8,6.6,7.2,11.1,9.1c-4.5,1.8-8.1,5.4-11.1,9.1C234,89,234.7,85.3,236.9,83z"/>
		</g>
	</g>
</g>
<g>
	<g>
		<polyline class="st8" points="131,103.8 203.7,103.8 203.7,213.1 316.1,213.1 		"/>
		<g>
			<path d="M315.3,213.1c-2.1-2.1-3.1-6.2-3.2-9.1c2.9,3.8,6.6,7.2,11.1,9.1c-4.5,1.8-8.1,5.4-11.1,9.1
				C312.4,219.1,313.1,215.4,315.3,213.1z"/>
		</g>
	</g>
</g>
<g>
	<g>
		<line class="st8" x1="138.2" y1="128.7" x2="244.8" y2="128.7"/>
		<g>
			<path d="M139,128.7c2.1-2.1,3.1-6.2,3.2-9.1c-2.9,3.8-6.6,7.2-11.1,9.1c4.5,1.8,8.1,5.4,11.1,9.1
				C141.9,134.7,141.1,131,139,128.7z"/>
		</g>
	</g>
</g>
<line class="st8" x1="159.6" y1="136.6" x2="176.1" y2="120.1"/>
<text transform="matrix(1 0 0 1 146.8644 145.7087)" class="st9 st10">2</text>
<line class="st8" x1="154.8" y1="67.9" x2="171.3" y2="51.4"/>
<text transform="matrix(1 0 0 1 142.0648 77.0325)" class="st9 st10">3</text>
<circle cx="226.3" cy="60.2" r="2.9"/>
<rect x="244.8" y="40.2" class="st8" width="91.9" height="95.8"/>
<text transform="matrix(1 0 0 1 266.1375 82.3331)"><tspan x="0" y="0" class="st9 st10">Level</tspan><tspan x="-18.6" y="27.6" class="st9 st10">Translate</tspan></text>
<text transform="matrix(1 0 0 1 31.6281 12.5)" class="st14 st9 st11">3.3V</text>
<text transform="matrix(1 0 0 1 429.5251 12.5)" class="st14 st9 st11">5V</text>
<g>
	<g>
		<line class="st8" x1="336.7" y1="83" x2="396.1" y2="83"/>
		<g>
			<path d="M395.3,83c-2.1-2.1-3.1-6.2-3.2-9.1c2.9,3.8,6.6,7.2,11.1,9.1c-4.5,1.8-8.1,5.4-11.1,9.1C392.4,89,393.1,85.3,395.3,83z"
				/>
		</g>
	</g>
</g>
<g>
	<g>
		<line class="st8" x1="343.8" y1="60.2" x2="396.1" y2="60.2"/>
		<g>
			<path d="M344.6,60.2c2.1-2.1,3.1-6.2,3.2-9.1c-2.9,3.8-6.6,7.2-11.1,9.1c4.5,1.8,8.1,5.4,11.1,9.1
				C347.5,66.2,346.8,62.5,344.6,60.2z"/>
		</g>
		<g>
			<path d="M395.3,60.2c-2.1-2.1-3.1-6.2-3.2-9.1c2.9,3.8,6.6,7.2,11.1,9.1c-4.5,1.8-8.1,5.4-11.1,9.1
				C392.4,66.2,393.1,62.5,395.3,60.2z"/>
		</g>
	</g>
</g>
<line class="st8" x1="360.5" y1="67.9" x2="377" y2="51.4"/>
<text transform="matrix(1 0 0 1 347.7314 77.0325)" class="st9 st10">3</text>
<g>
	<g>
		<line class="st8" x1="343.8" y1="128.7" x2="403.2" y2="128.7"/>
		<g>
			<path d="M344.6,128.7c2.1-2.1,3.1-6.2,3.2-9.1c-2.9,3.8-6.6,7.2-11.1,9.1c4.5,1.8,8.1,5.4,11.1,9.1
				C347.5,134.7,346.8,131,344.6,128.7z"/>
		</g>
	</g>
</g>
<line class="st8" x1="365.3" y1="136.6" x2="381.8" y2="120.1"/>
<text transform="matrix(1 0 0 1 352.5311 145.7087)" class="st9 st10">2</text>
<text transform="matrix(1 0 0 1 162.8677 79.4995)" class="st9 st15">CS_CO</text>
<text transform="matrix(1 0 0 1 162.8678 100.3328)" class="st9 st15">CS_MEM</text>
<text transform="matrix(1 0 0 1 176.1019 57.2505)" class="st9 st15">SPI</text>
<text transform="matrix(1 0 0 1 349.6019 126.3333)" class="st9 st15">IRQ</text>
<circle class="st14" cx="39.5" cy="23.8" r="2.9"/>
<circle class="st14" cx="436" cy="23.8" r="2.9"/>
</svg>
