<?xml version="1.0" encoding="utf-8"?>
<!-- Generator: Adobe Illustrator 19.1.0, SVG Export Plug-In . SVG Version: 6.00 Build 0)  -->
<svg version="1.1" id="Layer_1" xmlns="http://www.w3.org/2000/svg" xmlns:xlink="http://www.w3.org/1999/xlink" x="0px" y="0px"
	 viewBox="0 0 492 151.5" style="enable-background:new 0 0 492 151.5;" xml:space="preserve">
<style type="text/css">
	.st0{fill:none;stroke:#BE1E2D;stroke-width:2;stroke-miterlimit:10;}
	.st1{fill:#BE1E2D;}
	.st2{fill:none;stroke:#7F3F98;stroke-width:2;stroke-miterlimit:10;}
	.st3{fill:#7F3F98;}
	.st4{fill:none;stroke:#F26522;stroke-width:2;stroke-miterlimit:10;}
	.st5{fill:#F26522;}
	.st6{fill:none;stroke:#000000;stroke-width:2;stroke-miterlimit:10;}
	.st7{font-family:'MyriadPro-Regular';}
	.st8{font-size:23px;}
	.st9{font-size:12px;}
	.st10{font-size:16px;}
	.st11{fill:#F15A29;}
</style>
<g>
	<g>
		<line class="st0" x1="58.9" y1="26.2" x2="58.9" y2="44.6"/>
		<g>
			<path class="st1" d="M58.9,43.8c2.1-2.1,6.2-3.1,9.1-3.2c-3.8,2.9-7.2,6.6-9.1,11.1c-1.8-4.5-5.4-8.1-9.1-11.1
				C52.9,40.9,56.6,41.6,58.9,43.8z"/>
		</g>
	</g>
</g>
<g>
	<g>
		<line class="st0" x1="264.5" y1="23.6" x2="264.5" y2="42"/>
		<g>
			<path class="st1" d="M264.5,41.2c2.1-2.1,6.2-3.1,9.1-3.2c-3.8,2.9-7.2,6.6-9.1,11.1c-1.8-4.5-5.4-8.1-9.1-11.1
				C258.5,38.2,262.2,39,264.5,41.2z"/>
		</g>
	</g>
</g>
<g>
	<g>
		<line class="st2" x1="284.5" y1="23.6" x2="284.5" y2="42"/>
		<g>
			<path class="st3" d="M284.5,41.2c2.1-2.1,6.2-3.1,9.1-3.2c-3.8,2.9-7.2,6.6-9.1,11.1c-1.8-4.5-5.4-8.1-9.1-11.1
				C278.4,38.2,282.2,39,284.5,41.2z"/>
		</g>
	</g>
</g>
<g>
	<g>
		<polyline class="st4" points="80.5,44.6 80.5,20 244.8,20 		"/>
		<g>
			<path class="st5" d="M80.5,43.8c-2.1-2.1-6.2-3.1-9.1-3.2c3.8,2.9,7.2,6.6,9.1,11.1c1.8-4.5,5.4-8.1,9.1-11.1
				C86.5,40.9,82.8,41.6,80.5,43.8z"/>
		</g>
	</g>
</g>
<rect x="7.6" y="51.7" class="st6" width="88.8" height="90.6"/>
<text transform="matrix(1 0 0 1 12.4637 89.8328)"><tspan x="0" y="0" class="st7 st8">Position</tspan><tspan x="1.9" y="27.6" class="st7 st8">Sensors</tspan></text>
<g>
	<g>
		<g>
			<g>
				<line class="st6" x1="456.9" y1="51.9" x2="475.7" y2="51.9"/>
				<g>
					<path d="M474.8,51.9c-2.1-2.1-3.1-6.2-3.2-9.1c2.9,3.8,6.6,7.2,11.1,9.1c-4.5,1.8-8.1,5.4-11.1,9.1
						C471.9,57.9,472.7,54.2,474.8,51.9z"/>
				</g>
			</g>
		</g>
		<text transform="matrix(1 0 0 1 398.5699 49.4514)" class="st7 st9">Digital Signals</text>
	</g>
	<g>
		<g>
			<g>
				<line class="st0" x1="419" y1="74.4" x2="400.6" y2="74.4"/>
				<g>
					<path class="st1" d="M401.4,74.4c2.1,2.1,3.1,6.2,3.2,9.1c-2.9-3.8-6.6-7.2-11.1-9.1c4.5-1.8,8.1-5.4,11.1-9.1
						C404.3,68.4,403.6,72.2,401.4,74.4z"/>
				</g>
			</g>
		</g>
		<text transform="matrix(1 0 0 1 405.3819 72.1102)" class="st1 st7 st9">Analogue Power</text>
	</g>
	<g>
		<g>
			<g>
				<line class="st2" x1="457.8" y1="97.3" x2="476.1" y2="97.3"/>
				<g>
					<path class="st3" d="M475.3,97.3c-2.1-2.1-3.1-6.2-3.2-9.1c2.9,3.8,6.6,7.2,11.1,9.1c-4.5,1.8-8.1,5.4-11.1,9.1
						C472.4,103.3,473.2,99.6,475.3,97.3z"/>
				</g>
			</g>
		</g>
		<text transform="matrix(1 0 0 1 397.9265 94.7693)" class="st3 st7 st9">Backup Power</text>
	</g>
	<g>
		<g>
			<g>
				<line class="st4" x1="425.4" y1="119.7" x2="407" y2="119.7"/>
				<g>
					<path class="st5" d="M407.9,119.7c2.1,2.1,3.1,6.2,3.2,9.1c-2.9-3.8-6.6-7.2-11.1-9.1c4.5-1.8,8.1-5.4,11.1-9.1
						C410.8,113.7,410,117.4,407.9,119.7z"/>
				</g>
			</g>
		</g>
		<text transform="matrix(1 0 0 1 414.5896 117.428)" class="st5 st7 st9">Digital Power</text>
	</g>
</g>
<g>
	<g>
		<line class="st4" x1="244.8" y1="3.8" x2="244.8" y2="42"/>
		<g>
			<path class="st5" d="M244.8,41.2c2.1-2.1,6.2-3.1,9.1-3.2c-3.8,2.9-7.2,6.6-9.1,11.1c-1.8-4.5-5.4-8.1-9.1-11.1
				C238.7,38.2,242.5,39,244.8,41.2z"/>
		</g>
	</g>
</g>
<rect x="231.2" y="49.1" class="st6" width="125" height="95.8"/>
<text transform="matrix(1 0 0 1 269.8389 90.2203)"><tspan x="0" y="0" class="st7 st8">Main</tspan><tspan x="-24.3" y="27.6" class="st7 st8">Controller</tspan></text>
<g>
	<g>
		<line class="st6" x1="103.5" y1="64.5" x2="224.1" y2="64.5"/>
		<g>
			<path d="M104.3,64.5c2.1-2.1,3.1-6.2,3.2-9.1c-2.9,3.8-6.6,7.2-11.1,9.1c4.5,1.8,8.1,5.4,11.1,9.1
				C107.2,70.5,106.4,66.8,104.3,64.5z"/>
		</g>
		<g>
			<path d="M223.3,64.5c-2.1-2.1-3.1-6.2-3.2-9.1c2.9,3.8,6.6,7.2,11.1,9.1c-4.5,1.8-8.1,5.4-11.1,9.1
				C220.4,70.5,221.1,66.8,223.3,64.5z"/>
		</g>
	</g>
</g>
<line class="st6" x1="120.1" y1="72.2" x2="136.6" y2="55.7"/>
<text transform="matrix(1 0 0 1 107.3635 81.3659)" class="st7 st8">3</text>
<text transform="matrix(1 0 0 1 141.4007 61.5839)" class="st7 st10">SPI</text>
<text transform="matrix(1 0 0 1 220.4553 15.1875)" class="st11 st7 st9">3.3V</text>
<circle class="st11" cx="244.8" cy="20" r="2.9"/>
<g>
	<g>
		<line class="st6" x1="103.5" y1="96.7" x2="224.1" y2="96.7"/>
		<g>
			<path d="M104.3,96.7c2.1-2.1,3.1-6.2,3.2-9.1c-2.9,3.8-6.6,7.2-11.1,9.1c4.5,1.8,8.1,5.4,11.1,9.1
				C107.2,102.7,106.4,99,104.3,96.7z"/>
		</g>
		<g>
			<path d="M223.3,96.7c-2.1-2.1-3.1-6.2-3.2-9.1c2.9,3.8,6.6,7.2,11.1,9.1c-4.5,1.8-8.1,5.4-11.1,9.1
				C220.4,102.7,221.1,99,223.3,96.7z"/>
		</g>
	</g>
</g>
<line class="st6" x1="120.1" y1="104.4" x2="136.6" y2="87.9"/>
<text transform="matrix(1 0 0 1 107.3635 113.5326)" class="st7 st8">2</text>
<text transform="matrix(1 0 0 1 141.4007 93.7506)" class="st7 st10">I2C / Spare</text>
<g>
	<g>
		<line class="st6" x1="103.5" y1="128.5" x2="224.1" y2="128.5"/>
		<g>
			<path d="M104.3,128.5c2.1-2.1,3.1-6.2,3.2-9.1c-2.9,3.8-6.6,7.2-11.1,9.1c4.5,1.8,8.1,5.4,11.1,9.1
				C107.2,134.5,106.4,130.8,104.3,128.5z"/>
		</g>
		<g>
			<path d="M223.3,128.5c-2.1-2.1-3.1-6.2-3.2-9.1c2.9,3.8,6.6,7.2,11.1,9.1c-4.5,1.8-8.1,5.4-11.1,9.1
				C220.4,134.5,221.1,130.8,223.3,128.5z"/>
		</g>
	</g>
</g>
<line class="st6" x1="120.1" y1="136.2" x2="136.6" y2="119.7"/>
<text transform="matrix(1 0 0 1 107.3635 145.3659)" class="st7 st8">2</text>
<text transform="matrix(1 0 0 1 141.4007 125.5839)" class="st7 st10">CS / IRQ</text>
</svg>
