<?xml version="1.0" encoding="utf-8"?>
<!-- Generator: Adobe Illustrator 19.1.0, SVG Export Plug-In . SVG Version: 6.00 Build 0)  -->
<svg version="1.1" id="Layer_1" xmlns="http://www.w3.org/2000/svg" xmlns:xlink="http://www.w3.org/1999/xlink" x="0px" y="0px"
	 viewBox="0 0 510 331" style="enable-background:new 0 0 510 331;" xml:space="preserve">
<style type="text/css">
	.st0{fill:none;stroke:#F26522;stroke-width:2;stroke-miterlimit:10;}
	.st1{fill:#F26522;}
	.st2{fill:none;stroke:#7F3F98;stroke-width:2;stroke-miterlimit:10;}
	.st3{fill:#7F3F98;}
	.st4{fill:none;stroke:#00A651;stroke-width:2;stroke-miterlimit:10;}
	.st5{fill:#00A651;}
	.st6{fill:none;stroke:#000000;stroke-width:2;stroke-miterlimit:10;}
	.st7{font-family:'MyriadPro-Regular';}
	.st8{font-size:23px;}
	.st9{fill:none;stroke:#1C75BC;stroke-width:2;stroke-miterlimit:10;}
	.st10{fill:#1C75BC;}
	.st11{font-size:12px;}
	.st12{font-family:'MyriadPro-SemiboldIt';}
	.st13{fill:#00A14B;}
	.st14{fill:none;stroke:#000000;stroke-width:8;stroke-miterlimit:10;}
	.st15{font-family:'MyriadPro-BoldCondIt';}
	.st16{font-size:22px;}
</style>
<g>
	<g>
		<polyline class="st0" points="288.9,62.4 341.1,62.4 341.1,289.6 296,289.6 		"/>
		<g>
			<path class="st1" d="M296.8,289.6c2.1,2.1,3.1,6.2,3.2,9.1c-2.9-3.8-6.6-7.2-11.1-9.1c4.5-1.8,8.1-5.4,11.1-9.1
				C299.7,283.6,299,287.3,296.8,289.6z"/>
		</g>
	</g>
</g>
<g>
	<g>
		<polyline class="st0" points="289.3,74.8 332.2,74.8 332.2,156.1 296.5,156.1 		"/>
		<g>
			<path class="st1" d="M297.3,156.1c2.1,2.1,3.1,6.2,3.2,9.1c-2.9-3.8-6.6-7.2-11.1-9.1c4.5-1.8,8.1-5.4,11.1-9.1
				C300.2,150.1,299.4,153.8,297.3,156.1z"/>
		</g>
	</g>
</g>
<g>
	<g>
		<polyline class="st2" points="296.5,115 323.3,115 323.3,30.3 		"/>
		<g>
			<path class="st3" d="M297.3,115c2.1-2.1,3.1-6.2,3.2-9.1c-2.9,3.8-6.6,7.2-11.1,9.1c4.5,1.8,8.1,5.4,11.1,9.1
				C300.2,121,299.4,117.3,297.3,115z"/>
		</g>
	</g>
</g>
<g>
	<g>
		<line class="st2" x1="289.3" y1="30.3" x2="453.9" y2="30.3"/>
		<g>
			<path class="st3" d="M453.1,30.3c-2.1-2.1-3.1-6.2-3.2-9.1c2.9,3.8,6.6,7.2,11.1,9.1c-4.5,1.8-8.1,5.4-11.1,9.1
				C450.2,36.4,450.9,32.6,453.1,30.3z"/>
		</g>
	</g>
</g>
<g>
	<g>
		<line class="st4" x1="466.1" y1="19.3" x2="289.3" y2="19.3"/>
		<g>
			<path class="st5" d="M465.3,19.3c-2.1,2.1-3.1,6.2-3.2,9.1c2.9-3.8,6.6-7.2,11.1-9.1c-4.5-1.8-8.1-5.4-11.1-9.1
				C462.4,13.3,463.2,17,465.3,19.3z"/>
		</g>
	</g>
</g>
<g>
	<g>
		<line class="st4" x1="466.7" y1="41.3" x2="289.9" y2="41.3"/>
		<g>
			<path class="st5" d="M465.9,41.3c-2.1,2.1-3.1,6.2-3.2,9.1c2.9-3.8,6.6-7.2,11.1-9.1c-4.5-1.8-8.1-5.4-11.1-9.1
				C463,35.3,463.7,39,465.9,41.3z"/>
		</g>
	</g>
</g>
<rect x="164.3" y="106.7" class="st6" width="125" height="90.6"/>
<text transform="matrix(1 0 0 1 202.971 144.8331)"><tspan x="0" y="0" class="st7 st8">Main</tspan><tspan x="-24.3" y="27.6" class="st7 st8">Controller</tspan></text>
<g>
	<g>
		<line class="st9" x1="296.5" y1="179.2" x2="479.5" y2="179.2"/>
		<g>
			<path class="st10" d="M297.3,179.2c2.1-2.1,3.1-6.2,3.2-9.1c-2.9,3.8-6.6,7.2-11.1,9.1c4.5,1.8,8.1,5.4,11.1,9.1
				C300.2,185.2,299.4,181.5,297.3,179.2z"/>
		</g>
	</g>
</g>
<g>
	<g>
		<line class="st6" x1="296.5" y1="134.8" x2="472.4" y2="134.8"/>
		<g>
			<path d="M297.3,134.8c2.1-2.1,3.1-6.2,3.2-9.1c-2.9,3.8-6.6,7.2-11.1,9.1c4.5,1.8,8.1,5.4,11.1,9.1
				C300.2,140.8,299.4,137,297.3,134.8z"/>
		</g>
		<g>
			<path d="M471.6,134.8c-2.1-2.1-3.1-6.2-3.2-9.1c2.9,3.8,6.6,7.2,11.1,9.1c-4.5,1.8-8.1,5.4-11.1,9.1
				C468.7,140.8,469.4,137,471.6,134.8z"/>
		</g>
	</g>
</g>
<g>
	<g>
		<line class="st9" x1="296.5" y1="309.9" x2="478.5" y2="309.9"/>
		<g>
			<path class="st10" d="M297.3,309.9c2.1-2.1,3.1-6.2,3.2-9.1c-2.9,3.8-6.6,7.2-11.1,9.1c4.5,1.8,8.1,5.4,11.1,9.1
				C300.2,315.9,299.4,312.2,297.3,309.9z"/>
		</g>
	</g>
</g>
<g>
	<g>
		<line class="st6" x1="296.5" y1="255.4" x2="471.4" y2="255.4"/>
		<g>
			<path d="M297.3,255.4c2.1-2.1,3.1-6.2,3.2-9.1c-2.9,3.8-6.6,7.2-11.1,9.1c4.5,1.8,8.1,5.4,11.1,9.1
				C300.2,261.4,299.4,257.7,297.3,255.4z"/>
		</g>
		<g>
			<path d="M470.6,255.4c-2.1-2.1-3.1-6.2-3.2-9.1c2.9,3.8,6.6,7.2,11.1,9.1c-4.5,1.8-8.1,5.4-11.1,9.1
				C467.7,261.4,468.4,257.7,470.6,255.4z"/>
		</g>
	</g>
</g>
<rect x="164.3" y="237.3" class="st6" width="125" height="90.6"/>
<text transform="matrix(1 0 0 1 210.3197 275.4652)"><tspan x="0" y="0" class="st7 st8">Co-</tspan><tspan x="-29.8" y="27.6" class="st7 st8">Processor</tspan></text>
<g>
	<g>
		<line class="st6" x1="207.5" y1="204.4" x2="207.5" y2="230.3"/>
		<g>
			<path d="M207.5,205.2c2.1,2.1,6.2,3.1,9.1,3.2c-3.8-2.9-7.2-6.6-9.1-11.1c-1.8,4.5-5.4,8.1-9.1,11.1
				C201.5,208.1,205.2,207.4,207.5,205.2z"/>
		</g>
		<g>
			<path d="M207.5,229.5c2.1-2.1,6.2-3.1,9.1-3.2c-3.8,2.9-7.2,6.6-9.1,11.1c-1.8-4.5-5.4-8.1-9.1-11.1
				C201.5,226.6,205.2,227.4,207.5,229.5z"/>
		</g>
	</g>
</g>
<circle class="st3" cx="323.3" cy="30.3" r="2.9"/>
<g>
	<g>
		<line class="st0" x1="341.1" y1="62.4" x2="466.7" y2="62.4"/>
		<g>
			<path class="st1" d="M465.9,62.4c-2.1-2.1-3.1-6.2-3.2-9.1c2.9,3.8,6.6,7.2,11.1,9.1c-4.5,1.8-8.1,5.4-11.1,9.1
				C463,68.4,463.7,64.7,465.9,62.4z"/>
		</g>
	</g>
</g>
<g>
	<g>
		<line class="st0" x1="332.2" y1="74" x2="453.9" y2="74"/>
		<g>
			<path class="st1" d="M453.1,74c-2.1-2.1-3.1-6.2-3.2-9.1c2.9,3.8,6.6,7.2,11.1,9.1c-4.5,1.8-8.1,5.4-11.1,9.1
				C450.2,80,450.9,76.3,453.1,74z"/>
		</g>
	</g>
</g>
<circle class="st1" cx="332.2" cy="74" r="2.9"/>
<circle class="st1" cx="341.1" cy="62.4" r="2.9"/>
<g>
	<g>
		<g>
			<g>
				<line class="st6" x1="88.6" y1="52.2" x2="107.3" y2="52.2"/>
				<g>
					<path d="M106.5,52.2c-2.1-2.1-3.1-6.2-3.2-9.1c2.9,3.8,6.6,7.2,11.1,9.1c-4.5,1.8-8.1,5.4-11.1,9.1
						C103.6,58.2,104.4,54.5,106.5,52.2z"/>
				</g>
			</g>
		</g>
		<text transform="matrix(1 0 0 1 30.2565 49.7104)" class="st7 st11">Digital Signals</text>
	</g>
	<g>
		<g>
			<g>
				<line class="st9" x1="30.2" y1="75.5" x2="48.9" y2="75.5"/>
				<g>
					<path class="st10" d="M31,75.5c2.1-2.1,3.1-6.2,3.2-9.1c-2.9,3.8-6.6,7.2-11.1,9.1c4.5,1.8,8.1,5.4,11.1,9.1
						C33.9,81.5,33.1,77.7,31,75.5z"/>
				</g>
			</g>
		</g>
		<text transform="matrix(1 0 0 1 35.2644 72.9544)" class="st10 st7 st11">Analogue Signals</text>
	</g>
	<g>
		<g>
			<g>
				<line class="st4" x1="113.9" y1="98.9" x2="132.3" y2="98.9"/>
				<g>
					<path class="st5" d="M131.5,98.9c-2.1-2.1-3.1-6.2-3.2-9.1c2.9,3.8,6.6,7.2,11.1,9.1c-4.5,1.8-8.1,5.4-11.1,9.1
						C128.5,105,129.3,101.2,131.5,98.9z"/>
				</g>
			</g>
		</g>
		<text transform="matrix(1 0 0 1 5.1481 96.1985)" class="st5 st7 st11">Switched Battery Power</text>
	</g>
	<g>
		<g>
			<g>
				<line class="st2" x1="89.4" y1="121.9" x2="107.8" y2="121.9"/>
				<g>
					<path class="st3" d="M107,121.9c-2.1-2.1-3.1-6.2-3.2-9.1c2.9,3.8,6.6,7.2,11.1,9.1c-4.5,1.8-8.1,5.4-11.1,9.1
						C104.1,128,104.8,124.2,107,121.9z"/>
				</g>
			</g>
		</g>
		<text transform="matrix(1 0 0 1 29.6127 119.4427)" class="st3 st7 st11">Backup Power</text>
	</g>
	<g>
		<g>
			<g>
				<line class="st0" x1="57.1" y1="145" x2="38.7" y2="145"/>
				<g>
					<path class="st1" d="M39.5,145c2.1,2.1,3.1,6.2,3.2,9.1c-2.9-3.8-6.6-7.2-11.1-9.1c4.5-1.8,8.1-5.4,11.1-9.1
						C42.5,139,41.7,142.7,39.5,145z"/>
				</g>
			</g>
		</g>
		<text transform="matrix(1 0 0 1 46.276 142.6871)" class="st1 st7 st11">Digital Power</text>
	</g>
</g>
<text transform="matrix(1 0 0 1 386.1673 84.6667)" class="st1 st12 st11">3.3V</text>
<text transform="matrix(1 0 0 1 386.167 60.1668)" class="st1 st12 st11">5.0V</text>
<text transform="matrix(1 0 0 1 335.8337 51.8335)" class="st13 st12 st11">Motor</text>
<text transform="matrix(1 0 0 1 335.8337 16.8335)" class="st13 st12 st11">Support</text>
<line class="st14" x1="482.7" y1="3.2" x2="482.7" y2="327.9"/>
<text transform="matrix(0 1 -1 0 493.248 8.5418)" class="st15 st16">Expansion</text>
<line class="st6" x1="448.6" y1="142.8" x2="465" y2="126.4"/>
<text transform="matrix(1 0 0 1 435.8027 151.9918)" class="st7 st8">4</text>
<line class="st6" x1="448.6" y1="264.1" x2="465" y2="247.7"/>
<text transform="matrix(1 0 0 1 435.8026 273.2883)" class="st7 st8">4</text>
<line class="st9" x1="448.6" y1="188.1" x2="465" y2="171.6"/>
<text transform="matrix(1 0 0 1 435.8026 197.2743)" class="st10 st7 st8">2</text>
<line class="st9" x1="448.6" y1="318.8" x2="465" y2="302.3"/>
<text transform="matrix(1 0 0 1 435.8025 327.9068)" class="st10 st7 st8">2</text>
<g>
	<line class="st6" x1="18.3" y1="212.8" x2="57.5" y2="212.8"/>
	<line class="st6" x1="35.1" y1="221" x2="51.6" y2="204.6"/>
	<text transform="matrix(1 0 0 1 22.3641 230.1826)" class="st7 st8">3</text>
	<text transform="matrix(1 0 0 1 51.6018 226.3596)"><tspan x="0" y="0" class="st7 st11">This Signal Type </tspan><tspan x="0" y="14.4" class="st7 st11">has 3 wires</tspan></text>
</g>
</svg>
