<?xml version="1.0" encoding="utf-8"?>
<!-- Generator: Adobe Illustrator 19.1.0, SVG Export Plug-In . SVG Version: 6.00 Build 0)  -->
<svg version="1.1" id="Layer_1" xmlns="http://www.w3.org/2000/svg" xmlns:xlink="http://www.w3.org/1999/xlink" x="0px" y="0px"
	 viewBox="0 0 401.3 229.8" style="enable-background:new 0 0 401.3 229.8;" xml:space="preserve">
<style type="text/css">
	.st0{fill:none;stroke:#000000;stroke-width:2;stroke-miterlimit:10;}
	.st1{font-family:'MyriadPro-Regular';}
	.st2{font-size:23px;}
	.st3{font-size:12px;}
	.st4{font-size:16px;}
	.st5{fill:none;stroke:#000000;stroke-width:8;stroke-miterlimit:10;}
	.st6{font-family:'MyriadPro-BoldCondIt';}
	.st7{font-size:22px;}
</style>
<rect x="131" y="5.5" class="st0" width="125" height="90.6"/>
<text transform="matrix(1 0 0 1 169.6377 43.6664)"><tspan x="0" y="0" class="st1 st2">Main</tspan><tspan x="-24.3" y="27.6" class="st1 st2">Controller</tspan></text>
<rect x="131" y="136.2" class="st0" width="125" height="90.6"/>
<text transform="matrix(1 0 0 1 176.9863 174.2985)"><tspan x="0" y="0" class="st1 st2">Co-</tspan><tspan x="-29.8" y="27.6" class="st1 st2">Processor</tspan></text>
<g>
	<g>
		<line class="st0" x1="174.2" y1="103.2" x2="174.2" y2="129.2"/>
		<g>
			<path d="M174.2,104c2.1,2.1,6.2,3.1,9.1,3.2c-3.8-2.9-7.2-6.6-9.1-11.1c-1.8,4.5-5.4,8.1-9.1,11.1
				C168.1,107,171.9,106.2,174.2,104z"/>
		</g>
		<g>
			<path d="M174.2,128.4c2.1-2.1,6.2-3.1,9.1-3.2c-3.8,2.9-7.2,6.6-9.1,11.1c-1.8-4.5-5.4-8.1-9.1-11.1
				C168.1,125.5,171.9,126.2,174.2,128.4z"/>
		</g>
	</g>
</g>
<g>
	<g>
		<g>
			<line class="st0" x1="356.8" y1="90" x2="375.6" y2="90"/>
			<g>
				<path d="M374.8,90c-2.1-2.1-3.1-6.2-3.2-9.1c2.9,3.8,6.6,7.2,11.1,9.1c-4.5,1.8-8.1,5.4-11.1,9.1C371.9,96,372.6,92.3,374.8,90z
					"/>
			</g>
		</g>
	</g>
	<text transform="matrix(1 0 0 1 298.5166 87.5382)" class="st1 st3">Digital Signals</text>
</g>
<g>
	<line class="st0" x1="283.1" y1="137.9" x2="322.3" y2="137.9"/>
	<line class="st0" x1="299.9" y1="146.1" x2="316.4" y2="129.6"/>
	<text transform="matrix(1 0 0 1 287.1354 155.2605)" class="st1 st2">3</text>
	<text transform="matrix(1 0 0 1 316.3731 151.4375)"><tspan x="0" y="0" class="st1 st3">This Signal Type </tspan><tspan x="0" y="14.4" class="st1 st3">has 3 wires</tspan></text>
</g>
<g>
	<g>
		<g>
			<line class="st0" x1="40.5" y1="36.9" x2="123.9" y2="36.9"/>
			<g>
				<path d="M41.3,36.9c2.1-2.1,3.1-6.2,3.2-9.1c-2.9,3.8-6.6,7.2-11.1,9.1c4.5,1.8,8.1,5.4,11.1,9.1C44.2,43,43.4,39.2,41.3,36.9z"
					/>
			</g>
			<g>
				<path d="M123.1,36.9c-2.1-2.1-3.1-6.2-3.2-9.1c2.9,3.8,6.6,7.2,11.1,9.1c-4.5,1.8-8.1,5.4-11.1,9.1
					C120.2,43,120.9,39.2,123.1,36.9z"/>
			</g>
		</g>
	</g>
	<line class="st0" x1="100.1" y1="45" x2="116.5" y2="28.6"/>
	<text transform="matrix(1 0 0 1 87.3027 54.1802)" class="st1 st2">2</text>
	<g>
		<g>
			<line class="st0" x1="33.3" y1="65.2" x2="123.9" y2="65.2"/>
			<g>
				<path d="M123.1,65.2c-2.1-2.1-3.1-6.2-3.2-9.1c2.9,3.8,6.6,7.2,11.1,9.1c-4.5,1.8-8.1,5.4-11.1,9.1
					C120.2,71.2,120.9,67.5,123.1,65.2z"/>
			</g>
		</g>
	</g>
	<text transform="matrix(1 0 0 1 44.8518 34.2056)" class="st1 st4">SWD</text>
	<text transform="matrix(1 0 0 1 44.8519 62.4556)" class="st1 st4">Reset</text>
	<line class="st5" x1="31.3" y1="78.9" x2="31.3" y2="22.8"/>
	<text transform="matrix(8.979319e-011 -1 1 8.979319e-011 20.7518 73.4857)" class="st6 st7">Debug</text>
</g>
<g>
	<g>
		<g>
			<line class="st0" x1="40.5" y1="167.6" x2="123.9" y2="167.6"/>
			<g>
				<path d="M41.3,167.6c2.1-2.1,3.1-6.2,3.2-9.1c-2.9,3.8-6.6,7.2-11.1,9.1c4.5,1.8,8.1,5.4,11.1,9.1
					C44.2,173.6,43.4,169.9,41.3,167.6z"/>
			</g>
			<g>
				<path d="M123.1,167.6c-2.1-2.1-3.1-6.2-3.2-9.1c2.9,3.8,6.6,7.2,11.1,9.1c-4.5,1.8-8.1,5.4-11.1,9.1
					C120.2,173.6,120.9,169.9,123.1,167.6z"/>
			</g>
		</g>
	</g>
	<line class="st0" x1="100.1" y1="175.7" x2="116.5" y2="159.2"/>
	<text transform="matrix(1 0 0 1 87.3028 184.8123)" class="st1 st2">2</text>
	<g>
		<g>
			<line class="st0" x1="33.3" y1="195.8" x2="123.9" y2="195.8"/>
			<g>
				<path d="M123.1,195.8c-2.1-2.1-3.1-6.2-3.2-9.1c2.9,3.8,6.6,7.2,11.1,9.1c-4.5,1.8-8.1,5.4-11.1,9.1
					C120.2,201.8,120.9,198.1,123.1,195.8z"/>
			</g>
		</g>
	</g>
	<text transform="matrix(1 0 0 1 44.852 164.8378)" class="st1 st4">SWD</text>
	<text transform="matrix(1 0 0 1 44.8521 193.0878)" class="st1 st4">Reset</text>
	<line class="st5" x1="31.3" y1="209.5" x2="31.3" y2="153.4"/>
	<text transform="matrix(8.979319e-011 -1 1 8.979319e-011 20.7519 204.1185)" class="st6 st7">Debug</text>
</g>
</svg>
