<?xml version="1.0" encoding="utf-8"?>
<!-- Generator: Adobe Illustrator 19.1.0, SVG Export Plug-In . SVG Version: 6.00 Build 0)  -->
<svg version="1.1" id="Layer_1" xmlns="http://www.w3.org/2000/svg" xmlns:xlink="http://www.w3.org/1999/xlink" x="0px" y="0px"
	 viewBox="0 0 541 460" style="enable-background:new 0 0 541 460;" xml:space="preserve">
<style type="text/css">
	.st0{fill:none;stroke:#F26522;stroke-width:2;stroke-miterlimit:10;}
	.st1{fill:#F26522;}
	.st2{fill:none;stroke:#7F3F98;stroke-width:2;stroke-miterlimit:10;}
	.st3{fill:#7F3F98;}
	.st4{fill:none;stroke:#00A651;stroke-width:2;stroke-miterlimit:10;}
	.st5{fill:#00A651;}
	.st6{fill:none;stroke:#BE1E2D;stroke-width:2;stroke-miterlimit:10;}
	.st7{fill:#BE1E2D;}
	.st8{fill:none;stroke:#1C75BC;stroke-width:2;stroke-miterlimit:10;}
	.st9{fill:#1C75BC;}
	.st10{fill:none;stroke:#000000;stroke-width:2;stroke-miterlimit:10;}
	.st11{font-family:'MyriadPro-Regular';}
	.st12{font-size:23px;}
	.st13{fill:none;stroke:#2E3192;stroke-width:2;stroke-miterlimit:10;}
	.st14{fill:#2E3192;}
	.st15{font-size:12px;}
	.st16{font-family:'MyriadPro-SemiboldIt';}
	.st17{fill:#00A14B;}
	.st18{fill:none;stroke:#000000;stroke-width:8;stroke-miterlimit:10;}
	.st19{font-family:'MyriadPro-BoldCondIt';}
	.st20{font-size:22px;}
</style>
<g>
	<g>
		<polyline class="st0" points="288.9,70.4 341.1,70.4 341.1,337.6 296,337.6 		"/>
		<g>
			<path class="st1" d="M296.8,337.6c2.1,2.1,3.1,6.2,3.2,9.1c-2.9-3.8-6.6-7.2-11.1-9.1c4.5-1.8,8.1-5.4,11.1-9.1
				C299.7,331.6,299,335.3,296.8,337.6z"/>
		</g>
	</g>
</g>
<g>
	<g>
		<polyline class="st0" points="289.3,82 332.2,82 332.2,204.1 296.5,204.1 		"/>
		<g>
			<path class="st1" d="M297.3,204.1c2.1,2.1,3.1,6.2,3.2,9.1c-2.9-3.8-6.6-7.2-11.1-9.1c4.5-1.8,8.1-5.4,11.1-9.1
				C300.2,198.1,299.4,201.8,297.3,204.1z"/>
		</g>
	</g>
</g>
<g>
	<g>
		<polyline class="st2" points="296.5,163 323.3,163 323.3,38.3 		"/>
		<g>
			<path class="st3" d="M297.3,163c2.1-2.1,3.1-6.2,3.2-9.1c-2.9,3.8-6.6,7.2-11.1,9.1c4.5,1.8,8.1,5.4,11.1,9.1
				C300.2,169,299.4,165.3,297.3,163z"/>
		</g>
	</g>
</g>
<g>
	<g>
		<line class="st2" x1="289.3" y1="38.3" x2="453.9" y2="38.3"/>
		<g>
			<path class="st3" d="M453.1,38.3c-2.1-2.1-3.1-6.2-3.2-9.1c2.9,3.8,6.6,7.2,11.1,9.1c-4.5,1.8-8.1,5.4-11.1,9.1
				C450.2,44.4,450.9,40.6,453.1,38.3z"/>
		</g>
	</g>
</g>
<g>
	<g>
		<line class="st4" x1="466.1" y1="27.3" x2="289.3" y2="27.3"/>
		<g>
			<path class="st5" d="M465.3,27.3c-2.1,2.1-3.1,6.2-3.2,9.1c2.9-3.8,6.6-7.2,11.1-9.1c-4.5-1.8-8.1-5.4-11.1-9.1
				C462.4,21.3,463.2,25,465.3,27.3z"/>
		</g>
	</g>
</g>
<g>
	<g>
		<polyline class="st6" points="297,184.4 305.9,184.4 305.9,98 289.3,98 		"/>
		<g>
			<path class="st7" d="M297.8,184.4c2.1-2.1,3.1-6.2,3.2-9.1c-2.9,3.8-6.6,7.2-11.1,9.1c4.5,1.8,8.1,5.4,11.1,9.1
				C300.7,190.4,300,186.7,297.8,184.4z"/>
		</g>
	</g>
</g>
<line class="st6" x1="305.9" y1="90" x2="289.3" y2="90"/>
<g>
	<g>
		<line class="st4" x1="466.7" y1="49.3" x2="289.9" y2="49.3"/>
		<g>
			<path class="st5" d="M465.9,49.3c-2.1,2.1-3.1,6.2-3.2,9.1c2.9-3.8,6.6-7.2,11.1-9.1c-4.5-1.8-8.1-5.4-11.1-9.1
				C463,43.3,463.7,47,465.9,49.3z"/>
		</g>
	</g>
</g>
<g>
	<g>
		<line class="st6" x1="314.8" y1="318.1" x2="296.5" y2="318.1"/>
		<g>
			<path class="st7" d="M297.3,318.1c2.1,2.1,3.1,6.2,3.2,9.1c-2.9-3.8-6.6-7.2-11.1-9.1c4.5-1.8,8.1-5.4,11.1-9.1
				C300.2,312.1,299.4,315.8,297.3,318.1z"/>
		</g>
	</g>
</g>
<g>
	<g>
		<polyline class="st6" points="154.4,410.6 154.4,393 314.8,393 314.8,90 297.5,90 		"/>
		<g>
			<path class="st7" d="M154.4,409.8c-2.1-2.1-6.2-3.1-9.1-3.2c3.8,2.9,7.2,6.6,9.1,11.1c1.8-4.5,5.4-8.1,9.1-11.1
				C160.5,406.9,156.7,407.7,154.4,409.8z"/>
		</g>
	</g>
</g>
<g>
	<g>
		<line class="st6" x1="207.9" y1="393" x2="207.9" y2="410.6"/>
		<g>
			<path class="st7" d="M207.9,409.8c2.1-2.1,6.2-3.1,9.1-3.2c-3.8,2.9-7.2,6.6-9.1,11.1c-1.8-4.5-5.4-8.1-9.1-11.1
				C201.9,406.9,205.6,407.7,207.9,409.8z"/>
		</g>
	</g>
</g>
<circle class="st7" cx="314.8" cy="318.1" r="2.9"/>
<circle class="st7" cx="207.9" cy="393" r="2.9"/>
<g>
	<g>
		<line class="st6" x1="262.2" y1="393" x2="262.2" y2="410.6"/>
		<g>
			<path class="st7" d="M262.2,409.8c2.1-2.1,6.2-3.1,9.1-3.2c-3.8,2.9-7.2,6.6-9.1,11.1c-1.8-4.5-5.4-8.1-9.1-11.1
				C256.2,406.9,259.9,407.7,262.2,409.8z"/>
		</g>
	</g>
</g>
<circle class="st7" cx="262.2" cy="393" r="2.9"/>
<g>
	<g>
		<line class="st8" x1="285.2" y1="383" x2="285.2" y2="417.8"/>
		<g>
			<path class="st9" d="M285.2,383.8c2.1,2.1,6.2,3.1,9.1,3.2c-3.8-2.9-7.2-6.6-9.1-11.1c-1.8,4.5-5.4,8.1-9.1,11.1
				C279.1,386.8,282.9,386,285.2,383.8z"/>
		</g>
	</g>
</g>
<g>
	<g>
		<line class="st8" x1="232.7" y1="383" x2="232.7" y2="417.8"/>
		<g>
			<path class="st9" d="M232.7,383.8c2.1,2.1,6.2,3.1,9.1,3.2c-3.8-2.9-7.2-6.6-9.1-11.1c-1.8,4.5-5.4,8.1-9.1,11.1
				C226.6,386.8,230.4,386,232.7,383.8z"/>
		</g>
	</g>
</g>
<g>
	<g>
		<line class="st8" x1="178.4" y1="383" x2="178.4" y2="417.8"/>
		<g>
			<path class="st9" d="M178.4,383.8c2.1,2.1,6.2,3.1,9.1,3.2c-3.8-2.9-7.2-6.6-9.1-11.1c-1.8,4.5-5.4,8.1-9.1,11.1
				C172.4,386.8,176.1,386,178.4,383.8z"/>
		</g>
	</g>
</g>
<g>
	<g>
		<polyline class="st4" points="371.8,129.2 415,129.2 415,147.6 		"/>
		<g>
			<path class="st5" d="M415,146.8c2.1-2.1,6.2-3.1,9.1-3.2c-3.8,2.9-7.2,6.6-9.1,11.1c-1.8-4.5-5.4-8.1-9.1-11.1
				C409,143.9,412.7,144.6,415,146.8z"/>
		</g>
	</g>
</g>
<g>
	<g>
		<polyline class="st4" points="342.5,49.3 371.8,49.3 371.8,256.7 415,256.7 415,278.3 		"/>
		<g>
			<path class="st5" d="M415,277.5c2.1-2.1,6.2-3.1,9.1-3.2c-3.8,2.9-7.2,6.6-9.1,11.1c-1.8-4.5-5.4-8.1-9.1-11.1
				C409,274.6,412.7,275.4,415,277.5z"/>
		</g>
	</g>
</g>
<g>
	<g>
		<line class="st8" x1="218.3" y1="147.6" x2="218.3" y2="101.7"/>
		<g>
			<path class="st9" d="M218.3,146.8c-2.1-2.1-6.2-3.1-9.1-3.2c3.8,2.9,7.2,6.6,9.1,11.1c1.8-4.5,5.4-8.1,9.1-11.1
				C224.4,143.9,220.6,144.6,218.3,146.8z"/>
		</g>
	</g>
</g>
<rect x="164.3" y="154.7" class="st10" width="125" height="90.6"/>
<text transform="matrix(1 0 0 1 202.971 192.8331)"><tspan x="0" y="0" class="st11 st12">Main</tspan><tspan x="-24.3" y="27.6" class="st11 st12">Controller</tspan></text>
<g>
	<g>
		<line class="st10" x1="138.5" y1="200" x2="157.2" y2="200"/>
		<g>
			<path d="M139.3,200c2.1-2.1,3.1-6.2,3.2-9.1c-2.9,3.8-6.6,7.2-11.1,9.1c4.5,1.8,8.1,5.4,11.1,9.1
				C142.2,206,141.4,202.3,139.3,200z"/>
		</g>
		<g>
			<path d="M156.4,200c-2.1-2.1-3.1-6.2-3.2-9.1c2.9,3.8,6.6,7.2,11.1,9.1c-4.5,1.8-8.1,5.4-11.1,9.1
				C153.5,206,154.2,202.3,156.4,200z"/>
		</g>
	</g>
</g>
<g>
	<g>
		<line class="st8" x1="296.5" y1="227.2" x2="394.3" y2="227.2"/>
		<g>
			<path class="st9" d="M297.3,227.2c2.1-2.1,3.1-6.2,3.2-9.1c-2.9,3.8-6.6,7.2-11.1,9.1c4.5,1.8,8.1,5.4,11.1,9.1
				C300.2,233.2,299.4,229.5,297.3,227.2z"/>
		</g>
	</g>
</g>
<circle class="st10" cx="519" cy="172.8" r="18"/>
<text transform="matrix(1 0 0 1 510.3442 180.4474)" class="st11 st12">M</text>
<circle class="st10" cx="519" cy="227.2" r="18"/>
<text transform="matrix(1 0 0 1 510.3442 234.9188)" class="st11 st12">M</text>
<rect x="394.3" y="154.7" class="st10" width="73.7" height="90.6"/>
<text transform="matrix(1 0 0 1 403.0605 192.8328)"><tspan x="0" y="0" class="st11 st12">Motor</tspan><tspan x="4" y="27.6" class="st11 st12">Drive</tspan></text>
<g>
	<g>
		<line class="st10" x1="289.3" y1="172.8" x2="387.2" y2="172.8"/>
		<g>
			<path d="M386.4,172.8c-2.1-2.1-3.1-6.2-3.2-9.1c2.9,3.8,6.6,7.2,11.1,9.1c-4.5,1.8-8.1,5.4-11.1,9.1
				C383.5,178.8,384.2,175,386.4,172.8z"/>
		</g>
	</g>
</g>
<g>
	<g>
		<line class="st10" x1="468" y1="227.2" x2="493.9" y2="227.2"/>
		<g>
			<path d="M493.1,227.2c-2.1-2.1-3.1-6.2-3.2-9.1c2.9,3.8,6.6,7.2,11.1,9.1c-4.5,1.8-8.1,5.4-11.1,9.1
				C490.2,233.2,490.9,229.5,493.1,227.2z"/>
		</g>
	</g>
</g>
<g>
	<g>
		<line class="st10" x1="468" y1="172.8" x2="493.9" y2="172.8"/>
		<g>
			<path d="M493.1,172.8c-2.1-2.1-3.1-6.2-3.2-9.1c2.9,3.8,6.6,7.2,11.1,9.1c-4.5,1.8-8.1,5.4-11.1,9.1
				C490.2,178.8,490.9,175,493.1,172.8z"/>
		</g>
	</g>
</g>
<g>
	<g>
		<line class="st8" x1="296.5" y1="357.9" x2="394.3" y2="357.9"/>
		<g>
			<path class="st9" d="M297.3,357.9c2.1-2.1,3.1-6.2,3.2-9.1c-2.9,3.8-6.6,7.2-11.1,9.1c4.5,1.8,8.1,5.4,11.1,9.1
				C300.2,363.9,299.4,360.2,297.3,357.9z"/>
		</g>
	</g>
</g>
<circle class="st10" cx="519" cy="303.4" r="18"/>
<text transform="matrix(1 0 0 1 510.3442 311.0798)" class="st11 st12">M</text>
<circle class="st10" cx="519" cy="357.9" r="18"/>
<text transform="matrix(1 0 0 1 510.3442 365.5512)" class="st11 st12">M</text>
<rect x="394.3" y="285.3" class="st10" width="73.7" height="90.6"/>
<text transform="matrix(1 0 0 1 403.0605 323.4652)"><tspan x="0" y="0" class="st11 st12">Motor</tspan><tspan x="4" y="27.6" class="st11 st12">Drive</tspan></text>
<g>
	<g>
		<line class="st10" x1="289.3" y1="303.4" x2="387.2" y2="303.4"/>
		<g>
			<path d="M386.4,303.4c-2.1-2.1-3.1-6.2-3.2-9.1c2.9,3.8,6.6,7.2,11.1,9.1c-4.5,1.8-8.1,5.4-11.1,9.1
				C383.5,309.4,384.2,305.7,386.4,303.4z"/>
		</g>
	</g>
</g>
<g>
	<g>
		<line class="st10" x1="468" y1="357.9" x2="493.9" y2="357.9"/>
		<g>
			<path d="M493.1,357.9c-2.1-2.1-3.1-6.2-3.2-9.1c2.9,3.8,6.6,7.2,11.1,9.1c-4.5,1.8-8.1,5.4-11.1,9.1
				C490.2,363.9,490.9,360.2,493.1,357.9z"/>
		</g>
	</g>
</g>
<g>
	<g>
		<line class="st10" x1="468" y1="303.4" x2="493.9" y2="303.4"/>
		<g>
			<path d="M493.1,303.4c-2.1-2.1-3.1-6.2-3.2-9.1c2.9,3.8,6.6,7.2,11.1,9.1c-4.5,1.8-8.1,5.4-11.1,9.1
				C490.2,309.4,490.9,305.7,493.1,303.4z"/>
		</g>
	</g>
</g>
<rect x="164.3" y="285.3" class="st10" width="125" height="90.6"/>
<text transform="matrix(1 0 0 1 210.3197 323.4652)"><tspan x="0" y="0" class="st11 st12">Co-</tspan><tspan x="-29.8" y="27.6" class="st11 st12">Processor</tspan></text>
<g>
	<g>
		<line class="st10" x1="207.5" y1="252.4" x2="207.5" y2="278.3"/>
		<g>
			<path d="M207.5,253.2c2.1,2.1,6.2,3.1,9.1,3.2c-3.8-2.9-7.2-6.6-9.1-11.1c-1.8,4.5-5.4,8.1-9.1,11.1
				C201.5,256.1,205.2,255.4,207.5,253.2z"/>
		</g>
		<g>
			<path d="M207.5,277.5c2.1-2.1,6.2-3.1,9.1-3.2c-3.8,2.9-7.2,6.6-9.1,11.1c-1.8-4.5-5.4-8.1-9.1-11.1
				C201.5,274.6,205.2,275.4,207.5,277.5z"/>
		</g>
	</g>
</g>
<rect x="164.3" y="11.2" class="st10" width="125" height="90.6"/>
<text transform="matrix(1 0 0 1 196.4164 49.2908)"><tspan x="0" y="0" class="st11 st12">Power</tspan><tspan x="-26.8" y="27.6" class="st11 st12">Distribution</tspan></text>
<g>
	<g>
		<line class="st10" x1="193.9" y1="154.7" x2="193.9" y2="108.9"/>
		<g>
			<path d="M193.9,109.7c-2.1,2.1-6.2,3.1-9.1,3.2c3.8-2.9,7.2-6.6,9.1-11.1c1.8,4.5,5.4,8.1,9.1,11.1
				C199.9,112.6,196.2,111.8,193.9,109.7z"/>
		</g>
	</g>
</g>
<g>
	<g>
		<line class="st13" x1="99.3" y1="27.2" x2="157.2" y2="27.2"/>
		<g>
			<path class="st14" d="M156.4,27.2c-2.1-2.1-3.1-6.2-3.2-9.1c2.9,3.8,6.6,7.2,11.1,9.1c-4.5,1.8-8.1,5.4-11.1,9.1
				C153.5,33.2,154.2,29.5,156.4,27.2z"/>
		</g>
	</g>
</g>
<circle class="st5" cx="371.8" cy="129.2" r="2.9"/>
<rect x="43.1" y="154.7" class="st10" width="88.8" height="90.6"/>
<text transform="matrix(1 0 0 1 47.9637 192.8328)"><tspan x="0" y="0" class="st11 st12">Position</tspan><tspan x="1.9" y="27.6" class="st11 st12">Sensors</tspan></text>
<text transform="matrix(1 0 0 1 72.1729 20.6241)" class="st14 st11 st12">Battery</text>
<rect x="141.7" y="417.8" class="st10" width="45.3" height="37.9"/>
<rect x="195.2" y="417.8" class="st10" width="45.3" height="37.9"/>
<rect x="249.4" y="417.8" class="st10" width="45.3" height="37.9"/>
<text transform="matrix(1 0 0 1 147.4076 434.5)"><tspan x="0" y="0" class="st11 st15">Sensor</tspan><tspan x="13.8" y="14.4" class="st11 st15">1</tspan></text>
<text transform="matrix(1 0 0 1 201.5744 434.5)"><tspan x="0" y="0" class="st11 st15">Sensor</tspan><tspan x="13.8" y="14.4" class="st11 st15">2</tspan></text>
<text transform="matrix(1 0 0 1 255.1575 434.5)"><tspan x="0" y="0" class="st11 st15">Sensor</tspan><tspan x="13.8" y="14.4" class="st11 st15">3</tspan></text>
<circle class="st3" cx="323.3" cy="38.3" r="2.9"/>
<g>
	<g>
		<line class="st0" x1="341.1" y1="70.4" x2="466.7" y2="70.4"/>
		<g>
			<path class="st1" d="M465.9,70.4c-2.1-2.1-3.1-6.2-3.2-9.1c2.9,3.8,6.6,7.2,11.1,9.1c-4.5,1.8-8.1,5.4-11.1,9.1
				C463,76.4,463.7,72.7,465.9,70.4z"/>
		</g>
	</g>
</g>
<g>
	<g>
		<line class="st0" x1="332.2" y1="82" x2="453.9" y2="82"/>
		<g>
			<path class="st1" d="M453.1,82c-2.1-2.1-3.1-6.2-3.2-9.1c2.9,3.8,6.6,7.2,11.1,9.1c-4.5,1.8-8.1,5.4-11.1,9.1
				C450.2,88,450.9,84.3,453.1,82z"/>
		</g>
	</g>
</g>
<circle class="st1" cx="332.2" cy="82" r="2.9"/>
<circle class="st1" cx="341.1" cy="70.4" r="2.9"/>
<circle class="st5" cx="371.9" cy="49.3" r="2.9"/>
<g>
	<g>
		<g>
			<g>
				<line class="st10" x1="85.6" y1="280.2" x2="104.3" y2="280.2"/>
				<g>
					<path d="M103.5,280.2c-2.1-2.1-3.1-6.2-3.2-9.1c2.9,3.8,6.6,7.2,11.1,9.1c-4.5,1.8-8.1,5.4-11.1,9.1
						C100.6,286.2,101.4,282.5,103.5,280.2z"/>
				</g>
			</g>
		</g>
		<text transform="matrix(1 0 0 1 27.2565 277.7104)" class="st11 st15">Digital Signals</text>
	</g>
	<g>
		<g>
			<g>
				<line class="st8" x1="27.2" y1="302.8" x2="45.9" y2="302.8"/>
				<g>
					<path class="st9" d="M28,302.8c2.1-2.1,3.1-6.2,3.2-9.1c-2.9,3.8-6.6,7.2-11.1,9.1c4.5,1.8,8.1,5.4,11.1,9.1
						C30.9,308.8,30.1,305.1,28,302.8z"/>
				</g>
			</g>
		</g>
		<text transform="matrix(1 0 0 1 32.2643 300.306)" class="st9 st11 st15">Analogue Signals</text>
	</g>
	<g>
		<g>
			<g>
				<line class="st4" x1="110.9" y1="325.7" x2="129.3" y2="325.7"/>
				<g>
					<path class="st5" d="M128.5,325.7c-2.1-2.1-3.1-6.2-3.2-9.1c2.9,3.8,6.6,7.2,11.1,9.1c-4.5,1.8-8.1,5.4-11.1,9.1
						C125.5,331.7,126.3,327.9,128.5,325.7z"/>
				</g>
			</g>
		</g>
		<text transform="matrix(1 0 0 1 2.1481 322.9007)" class="st5 st11 st15">Switched Battery Power</text>
	</g>
	<g>
		<g>
			<g>
				<line class="st6" x1="47.7" y1="347.8" x2="29.3" y2="347.8"/>
				<g>
					<path class="st7" d="M30.1,347.8c2.1,2.1,3.1,6.2,3.2,9.1c-2.9-3.8-6.6-7.2-11.1-9.1c4.5-1.8,8.1-5.4,11.1-9.1
						C33,341.8,32.3,345.5,30.1,347.8z"/>
				</g>
			</g>
		</g>
		<text transform="matrix(1 0 0 1 34.0684 345.4963)" class="st7 st11 st15">Analogue Power</text>
	</g>
	<g>
		<g>
			<g>
				<line class="st2" x1="86.4" y1="370.6" x2="104.8" y2="370.6"/>
				<g>
					<path class="st3" d="M104,370.6c-2.1-2.1-3.1-6.2-3.2-9.1c2.9,3.8,6.6,7.2,11.1,9.1c-4.5,1.8-8.1,5.4-11.1,9.1
						C101.1,376.6,101.8,372.9,104,370.6z"/>
				</g>
			</g>
		</g>
		<text transform="matrix(1 0 0 1 26.6127 368.0916)" class="st3 st11 st15">Backup Power</text>
	</g>
	<g>
		<g>
			<g>
				<line class="st0" x1="54.1" y1="393" x2="35.7" y2="393"/>
				<g>
					<path class="st1" d="M36.5,393c2.1,2.1,3.1,6.2,3.2,9.1c-2.9-3.8-6.6-7.2-11.1-9.1c4.5-1.8,8.1-5.4,11.1-9.1
						C39.5,387,38.7,390.7,36.5,393z"/>
				</g>
			</g>
		</g>
		<text transform="matrix(1 0 0 1 43.2762 390.6871)" class="st1 st11 st15">Digital Power</text>
	</g>
</g>
<text transform="matrix(1 0 0 1 386.1673 92.6667)" class="st1 st16 st15">3.3V</text>
<text transform="matrix(1 0 0 1 386.167 68.1668)" class="st1 st16 st15">5.0V</text>
<text transform="matrix(1 0 0 1 335.8337 59.8335)" class="st17 st16 st15">Motor</text>
<text transform="matrix(1 0 0 1 335.8337 24.8335)" class="st17 st16 st15">Support</text>
<line class="st18" x1="482.7" y1="11.2" x2="482.7" y2="98"/>
<text transform="matrix(4.489659e-011 1 -1 4.489659e-011 493.248 16.5418)" class="st19 st20">Expansion</text>
</svg>
