<?xml version="1.0" encoding="utf-8"?>
<!-- Generator: Adobe Illustrator 19.1.0, SVG Export Plug-In . SVG Version: 6.00 Build 0)  -->
<svg version="1.1" id="Layer_1" xmlns="http://www.w3.org/2000/svg" xmlns:xlink="http://www.w3.org/1999/xlink" x="0px" y="0px"
	 viewBox="0 0 476 504" style="enable-background:new 0 0 476 504;" xml:space="preserve">
<style type="text/css">
	.st0{fill:none;stroke:#1C75BC;stroke-width:2;stroke-miterlimit:10;}
	.st1{fill:#1C75BC;}
	.st2{fill:none;stroke:#000000;stroke-width:2;stroke-miterlimit:10;}
	.st3{font-family:'MyriadPro-SemiboldIt';}
	.st4{font-size:15px;}
	.st5{fill:none;stroke:#F26522;stroke-width:2;stroke-miterlimit:10;}
	.st6{fill:#F26522;}
	.st7{fill:none;stroke:#BE1E2D;stroke-width:2;stroke-miterlimit:10;}
	.st8{fill:#BE1E2D;}
	.st9{font-family:'MyriadPro-Regular';}
	.st10{font-size:23px;}
	.st11{fill:none;stroke:#2E3192;stroke-width:2;stroke-miterlimit:10;}
	.st12{fill:#2E3192;}
	.st13{font-size:12px;}
</style>
<g>
	<g>
		<line class="st0" x1="182.3" y1="321.9" x2="328.1" y2="321.9"/>
		<g>
			<path class="st1" d="M183.1,321.9c2.1-2.1,3.1-6.2,3.2-9.1c-2.9,3.8-6.6,7.2-11.1,9.1c4.5,1.8,8.1,5.4,11.1,9.1
				C186,327.9,185.3,324.2,183.1,321.9z"/>
		</g>
	</g>
</g>
<g>
	<g>
		<line class="st2" x1="175.2" y1="126.9" x2="321" y2="126.9"/>
		<g>
			<path d="M320.2,126.9c-2.1-2.1-3.1-6.2-3.2-9.1c2.9,3.8,6.6,7.2,11.1,9.1c-4.5,1.8-8.1,5.4-11.1,9.1
				C317.3,132.9,318,129.2,320.2,126.9z"/>
		</g>
	</g>
</g>
<g>
	<g>
		<line class="st0" x1="182.3" y1="300.2" x2="328.1" y2="300.2"/>
		<g>
			<path class="st1" d="M183.1,300.2c2.1-2.1,3.1-6.2,3.2-9.1c-2.9,3.8-6.6,7.2-11.1,9.1c4.5,1.8,8.1,5.4,11.1,9.1
				C186,306.2,185.3,302.5,183.1,300.2z"/>
		</g>
	</g>
</g>
<g>
	<g>
		<line class="st0" x1="182.3" y1="278.4" x2="328.1" y2="278.4"/>
		<g>
			<path class="st1" d="M183.1,278.4c2.1-2.1,3.1-6.2,3.2-9.1c-2.9,3.8-6.6,7.2-11.1,9.1c4.5,1.8,8.1,5.4,11.1,9.1
				C186,284.4,185.3,280.7,183.1,278.4z"/>
		</g>
	</g>
</g>
<g>
	<g>
		<line class="st0" x1="182.3" y1="256.9" x2="328.1" y2="256.9"/>
		<g>
			<path class="st1" d="M183.1,256.9c2.1-2.1,3.1-6.2,3.2-9.1c-2.9,3.8-6.6,7.2-11.1,9.1c4.5,1.8,8.1,5.4,11.1,9.1
				C186,262.9,185.3,259.2,183.1,256.9z"/>
		</g>
	</g>
</g>
<g>
	<g>
		<line class="st2" x1="175.2" y1="148.7" x2="321" y2="148.7"/>
		<g>
			<path d="M320.2,148.7c-2.1-2.1-3.1-6.2-3.2-9.1c2.9,3.8,6.6,7.2,11.1,9.1c-4.5,1.8-8.1,5.4-11.1,9.1
				C317.3,154.7,318,151,320.2,148.7z"/>
		</g>
	</g>
</g>
<g>
	<g>
		<line class="st2" x1="175.2" y1="171.7" x2="321" y2="171.7"/>
		<g>
			<path d="M320.2,171.7c-2.1-2.1-3.1-6.2-3.2-9.1c2.9,3.8,6.6,7.2,11.1,9.1c-4.5,1.8-8.1,5.4-11.1,9.1
				C317.3,177.7,318,174,320.2,171.7z"/>
		</g>
	</g>
</g>
<g>
	<g>
		<line class="st2" x1="175.2" y1="194.3" x2="321" y2="194.3"/>
		<g>
			<path d="M320.2,194.3c-2.1-2.1-3.1-6.2-3.2-9.1c2.9,3.8,6.6,7.2,11.1,9.1c-4.5,1.8-8.1,5.4-11.1,9.1
				C317.3,200.4,318,196.6,320.2,194.3z"/>
		</g>
	</g>
</g>
<text transform="matrix(1 0 0 1 192.8588 122.3332)" class="st3 st4">Enable High Power</text>
<text transform="matrix(1 0 0 1 206.6062 145.0002)" class="st3 st4">Enable Motors</text>
<text transform="matrix(1 0 0 1 198.506 167.3335)" class="st3 st4">Enable Analogue</text>
<text transform="matrix(1 0 0 1 185.4643 189.6668)" class="st3 st4">Enable 5V CoSystems</text>
<g>
	<g>
		<line class="st2" x1="175.2" y1="217.2" x2="321" y2="217.2"/>
		<g>
			<path d="M320.2,217.2c-2.1-2.1-3.1-6.2-3.2-9.1c2.9,3.8,6.6,7.2,11.1,9.1c-4.5,1.8-8.1,5.4-11.1,9.1
				C317.3,223.2,318,219.5,320.2,217.2z"/>
		</g>
	</g>
</g>
<text transform="matrix(1 0 0 1 190.7823 212.5002)" class="st3 st4">Co-Analogue Select</text>
<text transform="matrix(1 0 0 1 210.5701 251.8335)" class="st1 st3 st4">Motor Current</text>
<text transform="matrix(1 0 0 1 206.1978 273.8335)" class="st1 st3 st4">Battery Voltage</text>
<text transform="matrix(1 0 0 1 206.5127 295.6668)" class="st1 st3 st4">Backup Current</text>
<text transform="matrix(1 0 0 1 205.8071 317.6668)" class="st1 st3 st4">Backup Voltage</text>
<g>
	<g>
		<line class="st0" x1="182.3" y1="344.8" x2="328.1" y2="344.8"/>
		<g>
			<path class="st1" d="M183.1,344.8c2.1-2.1,3.1-6.2,3.2-9.1c-2.9,3.8-6.6,7.2-11.1,9.1c4.5,1.8,8.1,5.4,11.1,9.1
				C186,350.9,185.3,347.1,183.1,344.8z"/>
		</g>
	</g>
</g>
<text transform="matrix(1 0 0 1 198.8786 340.6231)" class="st1 st3 st4">5V Supply Current</text>
<g>
	<g>
		<line class="st0" x1="182.3" y1="367.7" x2="328.1" y2="367.7"/>
		<g>
			<path class="st1" d="M183.1,367.7c2.1-2.1,3.1-6.2,3.2-9.1c-2.9,3.8-6.6,7.2-11.1,9.1c4.5,1.8,8.1,5.4,11.1,9.1
				C186,373.7,185.3,370,183.1,367.7z"/>
		</g>
	</g>
</g>
<text transform="matrix(1 0 0 1 193.2013 363.4565)" class="st1 st3 st4">3.3V Supply Current</text>
<g>
	<g>
		<polyline class="st5" points="358.3,391.3 358.3,434.2 137,434.2 137,398.4 		"/>
		<g>
			<path class="st6" d="M137,399.2c-2.1,2.1-6.2,3.1-9.1,3.2c3.8-2.9,7.2-6.6,9.1-11.1c1.8,4.5,5.4,8.1,9.1,11.1
				C143.1,402.2,139.3,401.4,137,399.2z"/>
		</g>
	</g>
</g>
<g>
	<g>
		<polyline class="st7" points="159.3,399 159.3,407.9 340.8,407.9 340.8,391.3 		"/>
		<g>
			<path class="st8" d="M159.3,399.8c2.1,2.1,6.2,3.1,9.1,3.2c-3.8-2.9-7.2-6.6-9.1-11.1c-1.8,4.5-5.4,8.1-9.1,11.1
				C153.2,402.7,157,402,159.3,399.8z"/>
		</g>
	</g>
</g>
<rect x="30" y="83.2" class="st2" width="145.2" height="308.2"/>
<text transform="matrix(1 0 0 1 78.3478 228.7746)"><tspan x="0" y="0" class="st9 st10">Main</tspan><tspan x="-24.3" y="27.6" class="st9 st10">Controller</tspan></text>
<rect x="328.1" y="83.2" class="st2" width="143.4" height="308.2"/>
<text transform="matrix(1 0 0 1 369.4063 228.7748)"><tspan x="0" y="0" class="st9 st10">Power</tspan><tspan x="-26.8" y="27.6" class="st9 st10">Distribution</tspan></text>
<g>
	<g>
		<line class="st11" x1="442.7" y1="18.3" x2="442.7" y2="76.2"/>
		<g>
			<path class="st12" d="M442.7,75.4c2.1-2.1,6.2-3.1,9.1-3.2c-3.8,2.9-7.2,6.6-9.1,11.1c-1.8-4.5-5.4-8.1-9.1-11.1
				C436.7,72.5,440.4,73.2,442.7,75.4z"/>
		</g>
	</g>
</g>
<text transform="matrix(4.489659e-011 1 -1 4.489659e-011 449.2539 2.1633)" class="st12 st9 st10">Battery</text>
<line class="st5" x1="358.3" y1="435.2" x2="358.3" y2="443"/>
<circle class="st6" cx="358.3" cy="434.2" r="2.9"/>
<g>
	<g>
		<g>
			<g>
				<line class="st2" x1="82.5" y1="415.2" x2="101.2" y2="415.2"/>
				<g>
					<path d="M100.4,415.2c-2.1-2.1-3.1-6.2-3.2-9.1c2.9,3.8,6.6,7.2,11.1,9.1c-4.5,1.8-8.1,5.4-11.1,9.1
						C97.5,421.2,98.3,417.5,100.4,415.2z"/>
				</g>
			</g>
		</g>
		<text transform="matrix(1 0 0 1 24.1587 412.741)" class="st9 st13">Digital Signals</text>
	</g>
	<g>
		<g>
			<g>
				<line class="st0" x1="24.1" y1="439.6" x2="42.8" y2="439.6"/>
				<g>
					<path class="st1" d="M24.9,439.6c2.1-2.1,3.1-6.2,3.2-9.1c-2.9,3.8-6.6,7.2-11.1,9.1c4.5,1.8,8.1,5.4,11.1,9.1
						C27.8,445.6,27,441.9,24.9,439.6z"/>
				</g>
			</g>
		</g>
		<text transform="matrix(1 0 0 1 29.1666 437.0667)" class="st1 st9 st13">Analogue Signals</text>
	</g>
	<g>
		<g>
			<g>
				<line class="st7" x1="89.5" y1="463.7" x2="107.8" y2="463.7"/>
				<g>
					<path class="st8" d="M107,463.7c-2.1-2.1-3.1-6.2-3.2-9.1c2.9,3.8,6.6,7.2,11.1,9.1c-4.5,1.8-8.1,5.4-11.1,9.1
						C104.1,469.7,104.9,466,107,463.7z"/>
				</g>
			</g>
		</g>
		<text transform="matrix(1 0 0 1 17.362 461.3925)" class="st8 st9 st13">Analogue Power</text>
	</g>
	<g>
		<g>
			<g>
				<line class="st5" x1="51" y1="488" x2="32.6" y2="488"/>
				<g>
					<path class="st6" d="M33.4,488c2.1,2.1,3.1,6.2,3.2,9.1c-2.9-3.8-6.6-7.2-11.1-9.1c4.5-1.8,8.1-5.4,11.1-9.1
						C36.4,482,35.6,485.7,33.4,488z"/>
				</g>
			</g>
		</g>
		<text transform="matrix(1 0 0 1 40.1782 485.7177)" class="st6 st9 st13">Digital Power</text>
	</g>
</g>
<text transform="matrix(4.489659e-011 1 -1 4.489659e-011 362.0449 401.1578)" class="st6 st3 st13">3.3V</text>
<g>
	<g>
		<line class="st2" x1="175.2" y1="105.2" x2="321" y2="105.2"/>
		<g>
			<path d="M320.2,105.2c-2.1-2.1-3.1-6.2-3.2-9.1c2.9,3.8,6.6,7.2,11.1,9.1c-4.5,1.8-8.1,5.4-11.1,9.1
				C317.3,111.2,318,107.5,320.2,105.2z"/>
		</g>
	</g>
</g>
<text transform="matrix(1 0 0 1 194.6732 100.5832)" class="st3 st4">Enable Main Logic</text>
</svg>
